<svg xmlns="http://www.w3.org/2000/svg" xmlns:xlink="http://www.w3.org/1999/xlink" width="800" zoomAndPan="magnify" viewBox="0 0 600 599.999999" height="800" preserveAspectRatio="xMidYMid meet" version="1.0"><defs><clipPath id="25cd817aa9"><path d="M 218 402.015625 L 446 402.015625 L 446 531.613281 L 218 531.613281 Z M 218 402.015625 " clip-rule="nonzero"/></clipPath><clipPath id="7dcd28b2ad"><path d="M 235.113281 531.554688 C 226.804688 531.554688 221.183594 529.664062 219.09375 525.671875 C 211.304688 510.789062 255.386719 472.382812 317.554688 439.882812 C 363.015625 416.109375 405.566406 402.082031 428.191406 402.082031 C 436.503906 402.082031 442.121094 403.976562 444.214844 407.972656 C 452 422.851562 407.917969 461.257812 345.75 493.761719 C 300.289062 517.527344 257.742188 531.554688 235.113281 531.554688 " clip-rule="nonzero"/></clipPath><clipPath id="95fc1e85da"><path d="M 235.113281 531.554688 C 226.804688 531.554688 221.183594 529.664062 219.09375 525.671875 C 211.304688 510.789062 255.386719 472.382812 317.554688 439.882812 C 363.015625 416.109375 405.566406 402.082031 428.191406 402.082031 C 436.503906 402.082031 442.121094 403.976562 444.214844 407.972656 C 452 422.851562 407.917969 461.257812 345.75 493.761719 C 300.289062 517.527344 257.742188 531.554688 235.113281 531.554688 " clip-rule="nonzero"/></clipPath><clipPath id="87b36e208e"><path d="M 158.101562 429.898438 L 263.011719 630.355469 L 505.207031 503.742188 L 400.292969 303.28125 Z M 158.101562 429.898438 " clip-rule="nonzero"/></clipPath><radialGradient gradientTransform="matrix(1.456809, -0.761614, 0.165127, 0.31552, 331.65479, 466.82036)" gradientUnits="userSpaceOnUse" r="57.509508" cx="0" id="6300ff1863" cy="0" fx="0" fy="0"><stop stop-opacity="1" stop-color="rgb(21.394348%, 17.445374%, 25.898743%)" offset="0"/><stop stop-opacity="1" stop-color="rgb(21.594238%, 17.59491%, 26.089478%)" offset="0.00390625"/><stop stop-opacity="1" stop-color="rgb(21.598816%, 17.599487%, 26.289368%)" offset="0.0078125"/><stop stop-opacity="1" stop-color="rgb(21.780396%, 17.779541%, 26.480103%)" offset="0.0117188"/><stop stop-opacity="1" stop-color="rgb(21.980286%, 17.979431%, 26.679993%)" offset="0.015625"/><stop stop-opacity="1" stop-color="rgb(22.198486%, 18.02063%, 26.899719%)" offset="0.0195312"/><stop stop-opacity="1" stop-color="rgb(22.399902%, 18.22052%, 27.116394%)" offset="0.0234375"/><stop stop-opacity="1" stop-color="rgb(22.409058%, 18.399048%, 27.325439%)" offset="0.0273438"/><stop stop-opacity="1" stop-color="rgb(22.558594%, 18.406677%, 27.658081%)" offset="0.03125"/><stop stop-opacity="1" stop-color="rgb(22.702026%, 18.606567%, 27.80304%)" offset="0.0351562"/><stop stop-opacity="1" stop-color="rgb(22.900391%, 18.798828%, 28.001404%)" offset="0.0390625"/><stop stop-opacity="1" stop-color="rgb(23.097229%, 18.992615%, 28.198242%)" offset="0.0429688"/><stop stop-opacity="1" stop-color="rgb(23.098755%, 19.192505%, 28.387451%)" offset="0.046875"/><stop stop-opacity="1" stop-color="rgb(23.283386%, 19.198608%, 28.587341%)" offset="0.0507812"/><stop stop-opacity="1" stop-color="rgb(23.483276%, 19.378662%, 28.778076%)" offset="0.0546875"/><stop stop-opacity="1" stop-color="rgb(23.498535%, 19.578552%, 28.977966%)" offset="0.0585938"/><stop stop-opacity="1" stop-color="rgb(23.698425%, 19.619751%, 29.199219%)" offset="0.0625"/><stop stop-opacity="1" stop-color="rgb(23.9151%, 19.819641%, 29.414368%)" offset="0.0664062"/><stop stop-opacity="1" stop-color="rgb(24.11499%, 19.999695%, 29.614258%)" offset="0.0703125"/><stop stop-opacity="1" stop-color="rgb(24.299622%, 20.005798%, 29.804993%)" offset="0.0742188"/><stop stop-opacity="1" stop-color="rgb(24.301147%, 20.205688%, 30.004883%)" offset="0.078125"/><stop stop-opacity="1" stop-color="rgb(24.497986%, 20.399475%, 30.198669%)" offset="0.0820312"/><stop stop-opacity="1" stop-color="rgb(24.69635%, 20.399475%, 30.39093%)" offset="0.0859375"/><stop stop-opacity="1" stop-color="rgb(24.887085%, 20.587158%, 30.59082%)" offset="0.0898438"/><stop stop-opacity="1" stop-color="rgb(25.086975%, 20.787048%, 30.781555%)" offset="0.09375"/><stop stop-opacity="1" stop-color="rgb(25.099182%, 20.799255%, 31.159973%)" offset="0.0976562"/><stop stop-opacity="1" stop-color="rgb(25.299072%, 20.999146%, 31.401062%)" offset="0.101562"/><stop stop-opacity="1" stop-color="rgb(25.498962%, 21.199036%, 31.622314%)" offset="0.105469"/><stop stop-opacity="1" stop-color="rgb(25.512695%, 21.212769%, 31.813049%)" offset="0.109375"/><stop stop-opacity="1" stop-color="rgb(25.712585%, 21.412659%, 32.012939%)" offset="0.113281"/><stop stop-opacity="1" stop-color="rgb(25.90332%, 21.603394%, 32.202148%)" offset="0.117188"/><stop stop-opacity="1" stop-color="rgb(26.10321%, 21.803284%, 32.35321%)" offset="0.121094"/><stop stop-opacity="1" stop-color="rgb(26.298523%, 21.998596%, 32.499695%)" offset="0.125"/><stop stop-opacity="1" stop-color="rgb(26.298523%, 21.998596%, 32.69043%)" offset="0.128906"/><stop stop-opacity="1" stop-color="rgb(26.48468%, 22.184753%, 32.89032%)" offset="0.132812"/><stop stop-opacity="1" stop-color="rgb(26.68457%, 22.384644%, 33.079529%)" offset="0.136719"/><stop stop-opacity="1" stop-color="rgb(26.699829%, 22.399902%, 33.279419%)" offset="0.140625"/><stop stop-opacity="1" stop-color="rgb(26.899719%, 22.549438%, 33.499146%)" offset="0.144531"/><stop stop-opacity="1" stop-color="rgb(27.116394%, 22.698975%, 33.71582%)" offset="0.148438"/><stop stop-opacity="1" stop-color="rgb(27.316284%, 22.711182%, 33.91571%)" offset="0.152344"/><stop stop-opacity="1" stop-color="rgb(27.49939%, 22.911072%, 34.106445%)" offset="0.15625"/><stop stop-opacity="1" stop-color="rgb(27.500916%, 23.098755%, 34.310913%)" offset="0.160156"/><stop stop-opacity="1" stop-color="rgb(27.650452%, 23.098755%, 34.701538%)" offset="0.164062"/><stop stop-opacity="1" stop-color="rgb(27.798462%, 23.292542%, 34.898376%)" offset="0.167969"/><stop stop-opacity="1" stop-color="rgb(27.987671%, 23.492432%, 35.087585%)" offset="0.171875"/><stop stop-opacity="1" stop-color="rgb(28.187561%, 23.498535%, 35.287476%)" offset="0.175781"/><stop stop-opacity="1" stop-color="rgb(28.199768%, 23.678589%, 35.47821%)" offset="0.179688"/><stop stop-opacity="1" stop-color="rgb(28.373718%, 23.878479%, 35.678101%)" offset="0.183594"/><stop stop-opacity="1" stop-color="rgb(28.573608%, 23.919678%, 35.899353%)" offset="0.1875"/><stop stop-opacity="1" stop-color="rgb(28.614807%, 24.119568%, 36.114502%)" offset="0.191406"/><stop stop-opacity="1" stop-color="rgb(28.814697%, 24.299622%, 36.314392%)" offset="0.195312"/><stop stop-opacity="1" stop-color="rgb(29.005432%, 24.305725%, 36.505127%)" offset="0.199219"/><stop stop-opacity="1" stop-color="rgb(29.205322%, 24.505615%, 36.705017%)" offset="0.203125"/><stop stop-opacity="1" stop-color="rgb(29.399109%, 24.699402%, 36.898804%)" offset="0.207031"/><stop stop-opacity="1" stop-color="rgb(29.399109%, 24.891663%, 37.091064%)" offset="0.210938"/><stop stop-opacity="1" stop-color="rgb(29.586792%, 25.091553%, 37.290955%)" offset="0.214844"/><stop stop-opacity="1" stop-color="rgb(29.786682%, 25.099182%, 37.435913%)" offset="0.21875"/><stop stop-opacity="1" stop-color="rgb(29.977417%, 25.27771%, 37.763977%)" offset="0.222656"/><stop stop-opacity="1" stop-color="rgb(30.177307%, 25.4776%, 38.000488%)" offset="0.226562"/><stop stop-opacity="1" stop-color="rgb(30.21698%, 25.517273%, 38.221741%)" offset="0.230469"/><stop stop-opacity="1" stop-color="rgb(30.418396%, 25.717163%, 38.412476%)" offset="0.234375"/><stop stop-opacity="1" stop-color="rgb(30.599976%, 25.898743%, 38.612366%)" offset="0.238281"/><stop stop-opacity="1" stop-color="rgb(30.604553%, 25.90332%, 38.803101%)" offset="0.242188"/><stop stop-opacity="1" stop-color="rgb(30.804443%, 26.10321%, 39.004517%)" offset="0.246094"/><stop stop-opacity="1" stop-color="rgb(30.999756%, 26.298523%, 39.199829%)" offset="0.25"/><stop stop-opacity="1" stop-color="rgb(31.190491%, 26.298523%, 39.389038%)" offset="0.253906"/><stop stop-opacity="1" stop-color="rgb(31.390381%, 26.48468%, 39.588928%)" offset="0.257812"/><stop stop-opacity="1" stop-color="rgb(31.399536%, 26.68457%, 39.779663%)" offset="0.261719"/><stop stop-opacity="1" stop-color="rgb(31.575012%, 26.699829%, 39.979553%)" offset="0.265625"/><stop stop-opacity="1" stop-color="rgb(31.797791%, 26.899719%, 40.19928%)" offset="0.269531"/><stop stop-opacity="1" stop-color="rgb(32.020569%, 27.099609%, 40.415955%)" offset="0.273438"/><stop stop-opacity="1" stop-color="rgb(32.199097%, 27.111816%, 40.615845%)" offset="0.277344"/><stop stop-opacity="1" stop-color="rgb(32.2052%, 27.311707%, 40.80658%)" offset="0.28125"/><stop stop-opacity="1" stop-color="rgb(32.354736%, 27.500916%, 41.009521%)" offset="0.285156"/><stop stop-opacity="1" stop-color="rgb(32.499695%, 27.650452%, 41.400146%)" offset="0.289062"/><stop stop-opacity="1" stop-color="rgb(32.688904%, 27.798462%, 41.786194%)" offset="0.292969"/><stop stop-opacity="1" stop-color="rgb(32.888794%, 27.983093%, 41.98761%)" offset="0.300781"/><stop stop-opacity="1" stop-color="rgb(33.078003%, 28.182983%, 42.178345%)" offset="0.304688"/><stop stop-opacity="1" stop-color="rgb(33.277893%, 28.199768%, 42.378235%)" offset="0.308594"/><stop stop-opacity="1" stop-color="rgb(33.319092%, 28.399658%, 42.549133%)" offset="0.3125"/><stop stop-opacity="1" stop-color="rgb(33.518982%, 28.599548%, 42.713928%)" offset="0.316406"/><stop stop-opacity="1" stop-color="rgb(33.709717%, 28.610229%, 42.915344%)" offset="0.320312"/><stop stop-opacity="1" stop-color="rgb(33.909607%, 28.81012%, 43.106079%)" offset="0.324219"/><stop stop-opacity="1" stop-color="rgb(34.098816%, 29.000854%, 43.307495%)" offset="0.328125"/><stop stop-opacity="1" stop-color="rgb(34.098816%, 29.197693%, 43.69812%)" offset="0.332031"/><stop stop-opacity="1" stop-color="rgb(34.291077%, 29.396057%, 43.896484%)" offset="0.335938"/><stop stop-opacity="1" stop-color="rgb(34.490967%, 29.399109%, 44.087219%)" offset="0.339844"/><stop stop-opacity="1" stop-color="rgb(34.681702%, 29.582214%, 44.470215%)" offset="0.34375"/><stop stop-opacity="1" stop-color="rgb(34.881592%, 29.782104%, 44.682312%)" offset="0.347656"/><stop stop-opacity="1" stop-color="rgb(35.099792%, 29.998779%, 44.898987%)" offset="0.351562"/><stop stop-opacity="1" stop-color="rgb(35.299683%, 30.198669%, 45.117188%)" offset="0.355469"/><stop stop-opacity="1" stop-color="rgb(35.313416%, 30.212402%, 45.317078%)" offset="0.359375"/><stop stop-opacity="1" stop-color="rgb(35.513306%, 30.413818%, 45.507812%)" offset="0.363281"/><stop stop-opacity="1" stop-color="rgb(35.704041%, 30.599976%, 45.709229%)" offset="0.367188"/><stop stop-opacity="1" stop-color="rgb(35.903931%, 30.795288%, 46.095276%)" offset="0.371094"/><stop stop-opacity="1" stop-color="rgb(36.2854%, 30.995178%, 46.479797%)" offset="0.378906"/><stop stop-opacity="1" stop-color="rgb(36.485291%, 31.17981%, 46.865845%)" offset="0.386719"/><stop stop-opacity="1" stop-color="rgb(36.676025%, 31.3797%, 47.079468%)" offset="0.390625"/><stop stop-opacity="1" stop-color="rgb(36.875916%, 31.420898%, 47.299194%)" offset="0.394531"/><stop stop-opacity="1" stop-color="rgb(36.915588%, 31.620789%, 47.511292%)" offset="0.398438"/><stop stop-opacity="1" stop-color="rgb(37.115479%, 31.806946%, 47.669983%)" offset="0.402344"/><stop stop-opacity="1" stop-color="rgb(37.44812%, 32.006836%, 48.007202%)" offset="0.410156"/><stop stop-opacity="1" stop-color="rgb(37.597656%, 32.344055%, 48.39325%)" offset="0.417969"/><stop stop-opacity="1" stop-color="rgb(37.788391%, 32.495117%, 48.59314%)" offset="0.421875"/><stop stop-opacity="1" stop-color="rgb(37.988281%, 32.499695%, 48.783875%)" offset="0.425781"/><stop stop-opacity="1" stop-color="rgb(37.998962%, 32.678223%, 48.983765%)" offset="0.429688"/><stop stop-opacity="1" stop-color="rgb(38.174438%, 32.878113%, 49.1745%)" offset="0.433594"/><stop stop-opacity="1" stop-color="rgb(38.394165%, 32.919312%, 49.394226%)" offset="0.4375"/><stop stop-opacity="1" stop-color="rgb(38.618469%, 33.119202%, 49.630737%)" offset="0.441406"/><stop stop-opacity="1" stop-color="rgb(38.804626%, 33.305359%, 50.016785%)" offset="0.449219"/><stop stop-opacity="1" stop-color="rgb(39.006042%, 33.505249%, 50.405884%)" offset="0.453125"/><stop stop-opacity="1" stop-color="rgb(39.199829%, 33.699036%, 50.791931%)" offset="0.460938"/><stop stop-opacity="1" stop-color="rgb(39.385986%, 33.886719%, 50.991821%)" offset="0.464844"/><stop stop-opacity="1" stop-color="rgb(39.585876%, 34.086609%, 51.18103%)" offset="0.46875"/><stop stop-opacity="1" stop-color="rgb(39.776611%, 34.098816%, 51.38092%)" offset="0.472656"/><stop stop-opacity="1" stop-color="rgb(39.976501%, 34.298706%, 51.599121%)" offset="0.476562"/><stop stop-opacity="1" stop-color="rgb(40.0177%, 34.498596%, 51.817322%)" offset="0.480469"/><stop stop-opacity="1" stop-color="rgb(40.21759%, 34.512329%, 52.017212%)" offset="0.484375"/><stop stop-opacity="1" stop-color="rgb(40.408325%, 34.713745%, 52.206421%)" offset="0.488281"/><stop stop-opacity="1" stop-color="rgb(40.608215%, 34.90448%, 52.355957%)" offset="0.492188"/><stop stop-opacity="1" stop-color="rgb(40.79895%, 35.10437%, 52.694702%)" offset="0.496094"/><stop stop-opacity="1" stop-color="rgb(40.989685%, 35.299683%, 52.894592%)" offset="0.503906"/><stop stop-opacity="1" stop-color="rgb(41.189575%, 35.484314%, 53.085327%)" offset="0.507812"/><stop stop-opacity="1" stop-color="rgb(41.19873%, 35.684204%, 53.285217%)" offset="0.511719"/><stop stop-opacity="1" stop-color="rgb(41.375732%, 35.699463%, 53.475952%)" offset="0.515625"/><stop stop-opacity="1" stop-color="rgb(41.596985%, 35.899353%, 53.875732%)" offset="0.519531"/><stop stop-opacity="1" stop-color="rgb(41.821289%, 36.099243%, 54.115295%)" offset="0.523438"/><stop stop-opacity="1" stop-color="rgb(41.999817%, 36.11145%, 54.316711%)" offset="0.527344"/><stop stop-opacity="1" stop-color="rgb(42.007446%, 36.31134%, 54.507446%)" offset="0.53125"/><stop stop-opacity="1" stop-color="rgb(42.207336%, 36.499023%, 54.707336%)" offset="0.535156"/><stop stop-opacity="1" stop-color="rgb(42.399597%, 36.499023%, 54.899597%)" offset="0.539062"/><stop stop-opacity="1" stop-color="rgb(42.544556%, 36.69281%, 55.093384%)" offset="0.542969"/><stop stop-opacity="1" stop-color="rgb(42.694092%, 36.8927%, 55.293274%)" offset="0.546875"/><stop stop-opacity="1" stop-color="rgb(42.698669%, 36.898804%, 55.484009%)" offset="0.550781"/><stop stop-opacity="1" stop-color="rgb(42.878723%, 37.078857%, 55.683899%)" offset="0.554688"/><stop stop-opacity="1" stop-color="rgb(43.078613%, 37.278748%, 55.873108%)" offset="0.558594"/><stop stop-opacity="1" stop-color="rgb(43.119812%, 37.313843%, 56.09436%)" offset="0.5625"/><stop stop-opacity="1" stop-color="rgb(43.319702%, 37.463379%, 56.318665%)" offset="0.566406"/><stop stop-opacity="1" stop-color="rgb(43.510437%, 37.599182%, 56.509399%)" offset="0.570312"/><stop stop-opacity="1" stop-color="rgb(43.710327%, 37.605286%, 56.70929%)" offset="0.574219"/><stop stop-opacity="1" stop-color="rgb(43.899536%, 37.805176%, 56.900024%)" offset="0.578125"/><stop stop-opacity="1" stop-color="rgb(43.899536%, 37.998962%, 57.098389%)" offset="0.582031"/><stop stop-opacity="1" stop-color="rgb(44.091797%, 38.191223%, 57.440186%)" offset="0.585938"/><stop stop-opacity="1" stop-color="rgb(44.291687%, 38.391113%, 57.592773%)" offset="0.589844"/><stop stop-opacity="1" stop-color="rgb(44.482422%, 38.398743%, 57.781982%)" offset="0.59375"/><stop stop-opacity="1" stop-color="rgb(44.682312%, 38.577271%, 57.981873%)" offset="0.597656"/><stop stop-opacity="1" stop-color="rgb(44.721985%, 38.777161%, 58.198547%)" offset="0.601562"/><stop stop-opacity="1" stop-color="rgb(44.921875%, 38.816833%, 58.418274%)" offset="0.605469"/><stop stop-opacity="1" stop-color="rgb(45.098877%, 39.01825%, 58.618164%)" offset="0.609375"/><stop stop-opacity="1" stop-color="rgb(45.108032%, 39.199829%, 58.808899%)" offset="0.613281"/><stop stop-opacity="1" stop-color="rgb(45.307922%, 39.204407%, 59.008789%)" offset="0.617188"/><stop stop-opacity="1" stop-color="rgb(45.498657%, 39.404297%, 59.199524%)" offset="0.621094"/><stop stop-opacity="1" stop-color="rgb(45.69397%, 39.599609%, 59.394836%)" offset="0.625"/><stop stop-opacity="1" stop-color="rgb(45.89386%, 39.784241%, 59.780884%)" offset="0.628906"/><stop stop-opacity="1" stop-color="rgb(46.080017%, 39.984131%, 59.985352%)" offset="0.636719"/><stop stop-opacity="1" stop-color="rgb(46.279907%, 39.99939%, 60.176086%)" offset="0.640625"/><stop stop-opacity="1" stop-color="rgb(46.321106%, 40.19928%, 60.575867%)" offset="0.644531"/><stop stop-opacity="1" stop-color="rgb(46.520996%, 40.39917%, 60.81543%)" offset="0.648438"/><stop stop-opacity="1" stop-color="rgb(46.711731%, 40.411377%, 61.016846%)" offset="0.652344"/><stop stop-opacity="1" stop-color="rgb(46.911621%, 40.611267%, 61.207581%)" offset="0.65625"/><stop stop-opacity="1" stop-color="rgb(47.099304%, 40.802002%, 61.407471%)" offset="0.660156"/><stop stop-opacity="1" stop-color="rgb(47.099304%, 41.000366%, 61.599731%)" offset="0.664062"/><stop stop-opacity="1" stop-color="rgb(47.293091%, 41.197205%, 61.793518%)" offset="0.667969"/><stop stop-opacity="1" stop-color="rgb(47.63031%, 41.383362%, 62.176514%)" offset="0.671875"/><stop stop-opacity="1" stop-color="rgb(47.787476%, 41.583252%, 62.513733%)" offset="0.679688"/><stop stop-opacity="1" stop-color="rgb(47.999573%, 41.798401%, 62.69989%)" offset="0.6875"/><stop stop-opacity="1" stop-color="rgb(48.210144%, 42.010498%, 62.930298%)" offset="0.691406"/><stop stop-opacity="1" stop-color="rgb(48.41156%, 42.210388%, 63.311768%)" offset="0.699219"/><stop stop-opacity="1" stop-color="rgb(48.797607%, 42.399597%, 63.697815%)" offset="0.707031"/><stop stop-opacity="1" stop-color="rgb(48.995972%, 42.54303%, 64.08844%)" offset="0.710938"/><stop stop-opacity="1" stop-color="rgb(49.182129%, 42.692566%, 64.474487%)" offset="0.714844"/><stop stop-opacity="1" stop-color="rgb(49.382019%, 42.877197%, 64.682007%)" offset="0.722656"/><stop stop-opacity="1" stop-color="rgb(49.598694%, 43.077087%, 64.898682%)" offset="0.726562"/><stop stop-opacity="1" stop-color="rgb(49.798584%, 43.118286%, 65.116882%)" offset="0.730469"/><stop stop-opacity="1" stop-color="rgb(49.812317%, 43.318176%, 65.318298%)" offset="0.734375"/><stop stop-opacity="1" stop-color="rgb(50.013733%, 43.508911%, 65.509033%)" offset="0.738281"/><stop stop-opacity="1" stop-color="rgb(50.19989%, 43.708801%, 65.708923%)" offset="0.742188"/><stop stop-opacity="1" stop-color="rgb(50.395203%, 43.899536%, 66.094971%)" offset="0.75"/><stop stop-opacity="1" stop-color="rgb(50.595093%, 44.090271%, 66.294861%)" offset="0.753906"/><stop stop-opacity="1" stop-color="rgb(50.784302%, 44.290161%, 66.485596%)" offset="0.757812"/><stop stop-opacity="1" stop-color="rgb(50.984192%, 44.299316%, 66.685486%)" offset="0.761719"/><stop stop-opacity="1" stop-color="rgb(50.999451%, 44.474792%, 66.874695%)" offset="0.765625"/><stop stop-opacity="1" stop-color="rgb(51.199341%, 44.674683%, 67.097473%)" offset="0.769531"/><stop stop-opacity="1" stop-color="rgb(51.416016%, 44.715881%, 67.333984%)" offset="0.773438"/><stop stop-opacity="1" stop-color="rgb(51.615906%, 44.915771%, 67.674255%)" offset="0.777344"/><stop stop-opacity="1" stop-color="rgb(51.806641%, 45.106506%, 68.011475%)" offset="0.78125"/><stop stop-opacity="1" stop-color="rgb(52.006531%, 45.306396%, 68.202209%)" offset="0.785156"/><stop stop-opacity="1" stop-color="rgb(52.198792%, 45.498657%, 68.400574%)" offset="0.789062"/><stop stop-opacity="1" stop-color="rgb(52.34375%, 45.692444%, 68.597412%)" offset="0.792969"/><stop stop-opacity="1" stop-color="rgb(52.494812%, 45.892334%, 68.788147%)" offset="0.796875"/><stop stop-opacity="1" stop-color="rgb(52.49939%, 45.899963%, 68.988037%)" offset="0.800781"/><stop stop-opacity="1" stop-color="rgb(52.677917%, 46.078491%, 69.178772%)" offset="0.804688"/><stop stop-opacity="1" stop-color="rgb(52.877808%, 46.278381%, 69.554138%)" offset="0.808594"/><stop stop-opacity="1" stop-color="rgb(53.09906%, 46.31958%, 69.793701%)" offset="0.8125"/><stop stop-opacity="1" stop-color="rgb(53.309631%, 46.51947%, 70.030212%)" offset="0.816406"/><stop stop-opacity="1" stop-color="rgb(53.509521%, 46.705627%, 70.410156%)" offset="0.824219"/><stop stop-opacity="1" stop-color="rgb(53.69873%, 46.905518%, 70.600891%)" offset="0.828125"/><stop stop-opacity="1" stop-color="rgb(53.69873%, 47.099304%, 70.797729%)" offset="0.832031"/><stop stop-opacity="1" stop-color="rgb(53.890991%, 47.099304%, 70.996094%)" offset="0.835938"/><stop stop-opacity="1" stop-color="rgb(54.090881%, 47.286987%, 71.186829%)" offset="0.839844"/><stop stop-opacity="1" stop-color="rgb(54.281616%, 47.486877%, 71.386719%)" offset="0.84375"/><stop stop-opacity="1" stop-color="rgb(54.481506%, 47.499084%, 71.577454%)" offset="0.847656"/><stop stop-opacity="1" stop-color="rgb(54.522705%, 47.648621%, 71.800232%)" offset="0.851562"/><stop stop-opacity="1" stop-color="rgb(54.722595%, 47.813416%, 72.032166%)" offset="0.855469"/><stop stop-opacity="1" stop-color="rgb(54.908752%, 48.013306%, 72.358704%)" offset="0.863281"/><stop stop-opacity="1" stop-color="rgb(55.108643%, 48.204041%, 72.503662%)" offset="0.867188"/><stop stop-opacity="1" stop-color="rgb(55.299377%, 48.403931%, 72.703552%)" offset="0.871094"/><stop stop-opacity="1" stop-color="rgb(55.49469%, 48.599243%, 73.094177%)" offset="0.875"/><stop stop-opacity="1" stop-color="rgb(55.69458%, 48.599243%, 73.294067%)" offset="0.878906"/><stop stop-opacity="1" stop-color="rgb(55.699158%, 48.7854%, 73.484802%)" offset="0.882812"/><stop stop-opacity="1" stop-color="rgb(55.880737%, 48.985291%, 73.684692%)" offset="0.886719"/><stop stop-opacity="1" stop-color="rgb(56.080627%, 48.999023%, 73.875427%)" offset="0.890625"/><stop stop-opacity="1" stop-color="rgb(56.298828%, 49.198914%, 74.09668%)" offset="0.894531"/><stop stop-opacity="1" stop-color="rgb(56.498718%, 49.398804%, 74.320984%)" offset="0.898438"/><stop stop-opacity="1" stop-color="rgb(56.510925%, 49.411011%, 74.511719%)" offset="0.902344"/><stop stop-opacity="1" stop-color="rgb(56.710815%, 49.610901%, 74.711609%)" offset="0.90625"/><stop stop-opacity="1" stop-color="rgb(56.898499%, 49.798584%, 74.902344%)" offset="0.910156"/><stop stop-opacity="1" stop-color="rgb(56.898499%, 49.798584%, 75.100708%)" offset="0.914062"/><stop stop-opacity="1" stop-color="rgb(57.092285%, 49.992371%, 75.297546%)" offset="0.917969"/><stop stop-opacity="1" stop-color="rgb(57.292175%, 50.192261%, 75.488281%)" offset="0.921875"/><stop stop-opacity="1" stop-color="rgb(57.449341%, 50.378418%, 75.868225%)" offset="0.925781"/><stop stop-opacity="1" stop-color="rgb(57.598877%, 50.578308%, 76.078796%)" offset="0.933594"/><stop stop-opacity="1" stop-color="rgb(57.798767%, 50.619507%, 76.318359%)" offset="0.9375"/><stop stop-opacity="1" stop-color="rgb(58.013916%, 50.819397%, 76.719666%)" offset="0.941406"/><stop stop-opacity="1" stop-color="rgb(58.215332%, 50.999451%, 76.9104%)" offset="0.945312"/><stop stop-opacity="1" stop-color="rgb(58.399963%, 51.005554%, 77.110291%)" offset="0.949219"/><stop stop-opacity="1" stop-color="rgb(58.401489%, 51.205444%, 77.2995%)" offset="0.953125"/><stop stop-opacity="1" stop-color="rgb(58.598328%, 51.399231%, 77.44751%)" offset="0.957031"/><stop stop-opacity="1" stop-color="rgb(58.796692%, 51.591492%, 77.59552%)" offset="0.960938"/><stop stop-opacity="1" stop-color="rgb(58.799744%, 51.791382%, 77.786255%)" offset="0.964844"/><stop stop-opacity="1" stop-color="rgb(58.981323%, 51.799011%, 77.986145%)" offset="0.96875"/><stop stop-opacity="1" stop-color="rgb(59.181213%, 51.977539%, 78.17688%)" offset="0.972656"/><stop stop-opacity="1" stop-color="rgb(59.399414%, 52.177429%, 78.399658%)" offset="0.976562"/><stop stop-opacity="1" stop-color="rgb(59.613037%, 52.348328%, 78.636169%)" offset="0.980469"/><stop stop-opacity="1" stop-color="rgb(59.812927%, 52.49939%, 79.013062%)" offset="0.988281"/><stop stop-opacity="1" stop-color="rgb(59.999084%, 52.503967%, 79.203796%)" offset="0.992188"/><stop stop-opacity="1" stop-color="rgb(59.999084%, 52.703857%, 79.403687%)" offset="0.996094"/><stop stop-opacity="1" stop-color="rgb(59.999084%, 52.89917%, 79.598999%)" offset="1"/></radialGradient><clipPath id="76599cffcf"><path d="M 457 181 L 470.984375 181 L 470.984375 195 L 457 195 Z M 457 181 " clip-rule="nonzero"/></clipPath><clipPath id="65a624e957"><path d="M 266 68.113281 L 319 68.113281 L 319 126 L 266 126 Z M 266 68.113281 " clip-rule="nonzero"/></clipPath><clipPath id="0ebc1afdca"><path d="M 266 68.113281 L 319 68.113281 L 319 126 L 266 126 Z M 266 68.113281 " clip-rule="nonzero"/></clipPath><clipPath id="19042e3b86"><path d="M 288 68.113281 L 302 68.113281 L 302 75 L 288 75 Z M 288 68.113281 " clip-rule="nonzero"/></clipPath></defs><g clip-path="url(#25cd817aa9)"><g clip-path="url(#7dcd28b2ad)"><g clip-path="url(#95fc1e85da)"><g clip-path="url(#87b36e208e)"><path fill="url(#6300ff1863)" d="M 164.1875 429.898438 L 266.503906 625.398438 L 499.210938 503.742188 L 396.894531 308.238281 Z M 164.1875 429.898438 " fill-rule="nonzero"/></g></g></g></g><path fill="#8e8cce" d="M 182.972656 105.792969 L 178.433594 105.136719 L 181.71875 101.933594 L 180.945312 97.414062 L 185.003906 99.546875 L 189.066406 97.414062 L 188.289062 101.933594 L 191.578125 105.136719 L 187.035156 105.792969 L 185.003906 109.90625 L 182.972656 105.792969 " fill-opacity="1" fill-rule="nonzero"/><path fill="#8e8cce" d="M 234.539062 160.847656 L 228.511719 159.972656 L 232.871094 155.722656 L 231.84375 149.722656 L 237.238281 152.558594 L 242.628906 149.722656 L 241.601562 155.722656 L 245.960938 159.972656 L 239.933594 160.847656 L 237.238281 166.308594 L 234.539062 160.847656 " fill-opacity="1" fill-rule="nonzero"/><path fill="#8e8cce" d="M 426.878906 236.652344 L 422.3125 235.992188 L 425.613281 232.769531 L 424.832031 228.226562 L 428.917969 230.375 L 433 228.226562 L 432.222656 232.769531 L 435.523438 235.992188 L 430.957031 236.652344 L 428.917969 240.785156 L 426.878906 236.652344 " fill-opacity="1" fill-rule="nonzero"/><path fill="#7dd5f7" d="M 345.511719 161.886719 L 340.949219 161.222656 L 344.25 158.003906 L 343.46875 153.457031 L 347.554688 155.605469 L 351.640625 153.457031 L 350.859375 158.003906 L 354.160156 161.222656 L 349.597656 161.886719 L 347.554688 166.019531 L 345.511719 161.886719 " fill-opacity="1" fill-rule="nonzero"/><g clip-path="url(#76599cffcf)"><path fill="#7dd5f7" d="M 462.152344 190.136719 L 457.585938 189.476562 L 460.886719 186.257812 L 460.109375 181.714844 L 464.191406 183.859375 L 468.277344 181.714844 L 467.496094 186.257812 L 470.804688 189.476562 L 466.238281 190.136719 L 464.191406 194.277344 L 462.152344 190.136719 " fill-opacity="1" fill-rule="nonzero"/></g><path fill="#7dd5f7" d="M 165.554688 230.375 L 160.992188 229.707031 L 164.292969 226.488281 L 163.511719 221.945312 L 167.597656 224.089844 L 171.683594 221.945312 L 170.902344 226.488281 L 174.207031 229.707031 L 169.636719 230.375 L 167.597656 234.507812 L 165.554688 230.375 " fill-opacity="1" fill-rule="nonzero"/><path fill="#ffffff" d="M 170.570312 368.777344 C 169.695312 367.738281 168.832031 366.695312 167.976562 365.640625 L 165.578125 367.570312 C 166.445312 368.644531 167.320312 369.714844 168.214844 370.765625 L 170.570312 368.777344 " fill-opacity="1" fill-rule="nonzero"/><path fill="#ffffff" d="M 163.078125 359.226562 C 161.5 357.050781 159.972656 354.832031 158.496094 352.574219 L 155.914062 354.257812 C 157.414062 356.558594 158.972656 358.816406 160.582031 361.035156 Z M 154.25 345.710938 C 152.898438 343.390625 151.59375 341.03125 150.355469 338.640625 L 147.613281 340.0625 C 148.882812 342.496094 150.207031 344.898438 151.589844 347.261719 Z M 146.8125 331.382812 C 145.691406 328.941406 144.632812 326.46875 143.632812 323.964844 L 140.769531 325.105469 C 141.785156 327.660156 142.867188 330.179688 144.007812 332.671875 Z M 140.832031 316.394531 C 139.964844 313.855469 139.160156 311.292969 138.417969 308.699219 L 135.453125 309.546875 C 136.210938 312.1875 137.03125 314.804688 137.917969 317.390625 Z M 136.386719 300.886719 C 135.777344 298.277344 135.230469 295.640625 134.746094 292.984375 L 131.714844 293.535156 C 132.203125 296.242188 132.761719 298.925781 133.382812 301.585938 Z M 133.503906 285.011719 C 133.160156 282.359375 132.875 279.679688 132.660156 276.988281 L 129.582031 277.234375 C 129.804688 279.976562 130.09375 282.703125 130.445312 285.410156 Z M 132.207031 268.929688 C 132.15625 267.214844 132.125 265.484375 132.125 263.757812 C 132.125 262.785156 132.132812 261.820312 132.152344 260.855469 L 129.070312 260.804688 C 129.050781 261.785156 129.042969 262.769531 129.042969 263.757812 C 129.042969 265.519531 129.070312 267.277344 129.125 269.027344 Z M 132.492188 252.792969 C 132.671875 250.09375 132.917969 247.414062 133.222656 244.753906 L 130.164062 244.398438 C 129.847656 247.109375 129.59375 249.839844 129.414062 252.585938 L 132.488281 252.792969 Z M 134.359375 236.761719 C 134.800781 234.097656 135.3125 231.453125 135.886719 228.835938 L 132.875 228.175781 C 132.289062 230.847656 131.769531 233.542969 131.316406 236.253906 Z M 137.808594 220.996094 C 138.511719 218.394531 139.28125 215.816406 140.117188 213.261719 L 137.1875 212.308594 C 136.335938 214.90625 135.554688 217.535156 134.832031 220.1875 Z M 142.820312 205.640625 C 143.78125 203.113281 144.8125 200.621094 145.898438 198.15625 L 143.078125 196.914062 C 141.972656 199.421875 140.925781 201.964844 139.941406 204.535156 Z M 149.347656 190.847656 C 150.554688 188.429688 151.824219 186.054688 153.152344 183.714844 L 150.46875 182.195312 C 149.121094 184.582031 147.824219 187.003906 146.589844 189.464844 Z M 157.308594 176.785156 C 158.753906 174.503906 160.25 172.269531 161.804688 170.066406 L 159.285156 168.289062 C 157.703125 170.53125 156.175781 172.808594 154.707031 175.132812 Z M 166.625 163.582031 C 168.285156 161.460938 169.996094 159.382812 171.757812 157.347656 L 169.425781 155.332031 C 167.632812 157.40625 165.886719 159.523438 164.195312 161.683594 Z M 177.195312 151.375 C 179.054688 149.429688 180.960938 147.53125 182.914062 145.675781 L 180.792969 143.4375 C 178.800781 145.328125 176.859375 147.261719 174.964844 149.246094 Z M 188.90625 140.265625 C 190.949219 138.515625 193.03125 136.8125 195.160156 135.164062 L 193.269531 132.730469 C 191.101562 134.410156 188.976562 136.144531 186.898438 137.929688 Z M 201.65625 130.375 C 203.859375 128.832031 206.097656 127.34375 208.375 125.914062 L 206.734375 123.308594 C 204.414062 124.765625 202.128906 126.277344 199.886719 127.847656 Z M 215.308594 121.792969 C 217.648438 120.476562 220.023438 119.21875 222.4375 118.023438 L 221.0625 115.261719 C 218.605469 116.484375 216.183594 117.769531 213.800781 119.105469 Z M 229.738281 114.609375 C 232.195312 113.535156 234.679688 112.523438 237.199219 111.5625 L 236.105469 108.683594 C 233.539062 109.65625 231.003906 110.6875 228.5 111.785156 Z M 244.816406 108.894531 C 247.371094 108.066406 249.949219 107.304688 252.558594 106.601562 L 251.757812 103.625 C 249.101562 104.339844 246.46875 105.117188 243.871094 105.957031 Z M 260.410156 104.703125 C 263.03125 104.136719 265.675781 103.636719 268.339844 103.199219 L 267.839844 100.15625 C 265.125 100.601562 262.425781 101.113281 259.757812 101.691406 Z M 276.339844 102.085938 C 279 101.785156 281.683594 101.546875 284.382812 101.371094 L 284.1875 98.296875 C 281.433594 98.476562 278.703125 98.71875 275.988281 99.023438 Z M 292.453125 101.058594 C 293.277344 101.042969 294.101562 101.039062 294.925781 101.039062 C 296.804688 101.039062 298.671875 101.070312 300.53125 101.132812 L 300.632812 98.050781 C 298.742188 97.988281 296.839844 97.957031 294.925781 97.957031 C 294.085938 97.957031 293.246094 97.964844 292.410156 97.972656 Z M 308.59375 101.605469 C 311.289062 101.828125 313.964844 102.117188 316.621094 102.472656 L 317.027344 99.417969 C 314.324219 99.054688 311.597656 98.761719 308.847656 98.535156 Z M 324.597656 103.734375 C 327.253906 104.222656 329.890625 104.777344 332.5 105.394531 L 333.207031 102.390625 C 330.550781 101.765625 327.863281 101.203125 325.160156 100.703125 Z M 340.308594 107.445312 C 342.90625 108.195312 345.46875 109.007812 348.007812 109.882812 L 349.011719 106.96875 C 346.429688 106.082031 343.8125 105.25 341.167969 104.484375 Z M 355.589844 112.710938 C 358.101562 113.714844 360.578125 114.785156 363.019531 115.914062 L 364.3125 113.113281 C 361.820312 111.964844 359.300781 110.875 356.742188 109.847656 Z M 370.277344 119.476562 C 372.671875 120.730469 375.027344 122.039062 377.347656 123.402344 L 378.910156 120.746094 C 376.546875 119.355469 374.148438 118.023438 371.710938 116.75 Z M 384.214844 127.667969 C 386.46875 129.152344 388.683594 130.683594 390.859375 132.273438 L 392.675781 129.785156 C 390.460938 128.167969 388.207031 126.601562 385.90625 125.097656 Z M 397.261719 137.199219 C 399.355469 138.890625 401.410156 140.636719 403.414062 142.433594 L 405.472656 140.136719 C 403.425781 138.304688 401.339844 136.53125 399.203125 134.800781 Z M 409.300781 147.957031 C 411.21875 149.847656 413.089844 151.785156 414.910156 153.769531 L 417.179688 151.6875 C 415.324219 149.667969 413.421875 147.691406 411.46875 145.765625 Z M 420.21875 159.851562 C 421.933594 161.914062 423.609375 164.027344 425.222656 166.183594 L 427.6875 164.332031 C 426.042969 162.140625 424.34375 159.984375 422.59375 157.878906 Z M 429.90625 172.75 C 431.410156 174.976562 432.863281 177.238281 434.257812 179.539062 L 436.894531 177.941406 C 435.472656 175.597656 433.992188 173.292969 432.460938 171.023438 Z M 438.265625 186.535156 C 439.539062 188.894531 440.757812 191.289062 441.917969 193.714844 L 444.703125 192.390625 C 443.515625 189.914062 442.277344 187.476562 440.976562 185.070312 Z M 445.210938 201.070312 C 446.246094 203.542969 447.214844 206.042969 448.132812 208.574219 L 451.027344 207.53125 C 450.101562 204.953125 449.105469 202.402344 448.058594 199.882812 Z M 450.675781 216.238281 C 451.457031 218.800781 452.179688 221.390625 452.835938 224.011719 L 455.828125 223.257812 C 455.15625 220.59375 454.425781 217.953125 453.625 215.335938 Z M 454.609375 231.882812 C 455.132812 234.511719 455.589844 237.164062 455.984375 239.835938 L 459.03125 239.390625 C 458.632812 236.664062 458.164062 233.964844 457.628906 231.285156 L 454.609375 231.886719 Z M 456.960938 247.847656 C 457.21875 250.511719 457.417969 253.199219 457.542969 255.898438 L 460.621094 255.753906 C 460.492188 253.003906 460.292969 250.269531 460.03125 247.550781 Z M 457.730469 263.972656 C 457.726562 266.679688 457.65625 269.371094 457.519531 272.050781 L 460.601562 272.203125 C 460.738281 269.480469 460.808594 266.738281 460.8125 263.976562 Z M 456.917969 280.105469 C 456.648438 282.796875 456.3125 285.46875 455.917969 288.121094 L 458.964844 288.574219 C 459.371094 285.875 459.714844 283.152344 459.984375 280.410156 Z M 454.519531 296.074219 C 453.984375 298.722656 453.390625 301.347656 452.722656 303.945312 L 455.714844 304.707031 C 456.386719 302.054688 456.996094 299.382812 457.542969 296.683594 Z M 450.542969 311.722656 C 449.746094 314.300781 448.886719 316.851562 447.96875 319.378906 L 450.867188 320.429688 C 451.804688 317.859375 452.679688 315.257812 453.488281 312.625 Z M 445.019531 326.894531 C 443.972656 329.378906 442.863281 331.835938 441.699219 334.253906 L 444.476562 335.589844 C 445.667969 333.125 446.796875 330.621094 447.863281 328.089844 L 445.019531 326.894531 " fill-opacity="1" fill-rule="nonzero"/><path fill="#ffffff" d="M 437.894531 341.65625 C 437.242188 342.847656 436.578125 344.027344 435.898438 345.203125 L 438.570312 346.746094 C 439.261719 345.550781 439.941406 344.347656 440.601562 343.132812 L 437.894531 341.65625 " fill-opacity="1" fill-rule="nonzero"/><path fill="#71aec7" d="M 405.199219 160.8125 L 455.722656 131.8125 L 452.640625 129.867188 L 402.113281 158.867188 L 405.199219 160.8125 " fill-opacity="1" fill-rule="nonzero"/><path fill="#222326" d="M 455.734375 173.765625 L 455.734375 173.75 L 455.722656 173.753906 Z M 455.734375 173.765625 " fill-opacity="1" fill-rule="nonzero"/><path fill="#222326" d="M 402.101562 200.804688 L 402.101562 200.816406 L 402.113281 200.808594 Z M 402.101562 200.804688 " fill-opacity="1" fill-rule="nonzero"/><path fill="#f8a049" d="M 405.199219 160.8125 L 402.101562 158.863281 L 402.101562 200.804688 L 405.199219 202.753906 L 405.199219 160.8125 " fill-opacity="1" fill-rule="nonzero"/><path fill="#fbc24b" d="M 405.199219 160.8125 L 455.734375 131.804688 L 455.734375 173.75 L 405.199219 202.753906 L 405.199219 160.8125 " fill-opacity="1" fill-rule="nonzero"/><path fill="#fab74c" d="M 405.199219 160.8125 L 455.722656 131.8125 L 452.640625 129.867188 L 402.113281 158.867188 L 405.199219 160.8125 " fill-opacity="1" fill-rule="nonzero"/><path fill="#222326" d="M 455.734375 173.765625 L 455.734375 173.75 L 455.722656 173.753906 Z M 455.734375 173.765625 " fill-opacity="1" fill-rule="nonzero"/><path fill="#f6853f" d="M 405.199219 169.191406 L 405.199219 160.8125 L 402.101562 158.863281 L 402.101562 167.15625 L 405.199219 169.191406 " fill-opacity="1" fill-rule="nonzero"/><path fill="#f8a233" d="M 405.199219 160.8125 L 405.199219 169.191406 L 433.59375 169.191406 L 455.722656 140.394531 L 455.734375 131.804688 L 405.199219 160.8125 " fill-opacity="1" fill-rule="nonzero"/><g clip-path="url(#65a624e957)"><path fill="#356e8a" d="M 292.449219 106.644531 C 287.128906 108.488281 282.8125 105.523438 282.8125 100.03125 C 282.804688 94.535156 287.113281 88.589844 292.429688 86.746094 C 297.75 84.902344 302.066406 87.867188 302.070312 93.363281 C 302.070312 98.855469 297.765625 104.804688 292.449219 106.644531 Z M 318.769531 91.707031 L 318.765625 83.457031 L 312.519531 85.617188 C 311.984375 83.023438 310.929688 80.808594 309.457031 79.046875 L 313.867188 72.953125 L 308.214844 69.074219 L 303.800781 75.164062 C 301.601562 74.402344 299.101562 74.179688 296.417969 74.558594 L 296.410156 68.105469 L 288.425781 70.871094 L 288.429688 77.320312 C 285.742188 78.800781 283.246094 80.761719 281.050781 83.039062 L 276.628906 80.007812 L 270.984375 87.796875 L 275.40625 90.832031 C 273.933594 93.609375 272.878906 96.558594 272.351562 99.523438 L 266.109375 101.683594 L 266.117188 109.9375 L 272.355469 107.773438 C 272.894531 110.367188 273.953125 112.582031 275.421875 114.347656 L 271.015625 120.433594 L 276.667969 124.316406 L 281.074219 118.226562 C 283.273438 118.984375 285.777344 119.210938 288.464844 118.832031 L 288.46875 125.28125 L 296.453125 122.519531 L 296.449219 116.066406 C 299.136719 114.585938 301.636719 112.632812 303.832031 110.347656 L 308.25 113.382812 L 313.894531 105.589844 L 309.476562 102.558594 C 310.945312 99.78125 312 96.832031 312.527344 93.871094 L 318.769531 91.707031 " fill-opacity="1" fill-rule="nonzero"/></g><path fill="#4ca2c5" d="M 297.421875 110.167969 C 292.101562 112.007812 287.789062 109.042969 287.785156 103.546875 C 287.78125 98.054688 292.089844 92.105469 297.402344 90.269531 C 302.722656 88.425781 307.039062 91.386719 307.046875 96.882812 C 307.050781 102.378906 302.742188 108.324219 297.421875 110.167969 Z M 323.75 95.230469 L 323.738281 86.976562 L 317.496094 89.140625 C 316.964844 86.542969 315.902344 84.332031 314.433594 82.566406 L 318.839844 76.476562 L 313.191406 72.597656 L 308.78125 78.6875 C 306.578125 77.925781 304.078125 77.699219 301.390625 78.082031 L 301.386719 71.628906 L 293.398438 74.394531 L 293.40625 80.84375 C 290.71875 82.324219 288.21875 84.28125 286.023438 86.5625 L 281.605469 83.53125 L 275.960938 91.316406 L 280.382812 94.351562 C 278.910156 97.132812 277.859375 100.082031 277.328125 103.039062 L 271.085938 105.203125 L 271.089844 113.457031 L 277.332031 111.296875 C 277.867188 113.886719 278.925781 116.105469 280.402344 117.863281 L 275.988281 123.957031 L 281.640625 127.835938 L 286.050781 121.746094 C 288.25 122.507812 290.75 122.734375 293.4375 122.351562 L 293.441406 128.800781 L 301.429688 126.039062 L 301.421875 119.589844 C 304.113281 118.109375 306.609375 116.152344 308.808594 113.871094 L 313.230469 116.90625 L 318.867188 109.113281 L 314.449219 106.082031 C 315.921875 103.296875 316.976562 100.355469 317.507812 97.390625 L 323.75 95.230469 " fill-opacity="1" fill-rule="nonzero"/><g clip-path="url(#0ebc1afdca)"><path fill="#1a3244" d="M 292.449219 106.644531 C 287.128906 108.488281 282.8125 105.523438 282.8125 100.03125 C 282.804688 94.535156 287.113281 88.589844 292.429688 86.746094 C 297.75 84.902344 302.066406 87.867188 302.070312 93.363281 C 302.070312 98.855469 297.765625 104.804688 292.449219 106.644531 Z M 318.769531 91.707031 L 318.765625 83.457031 L 312.519531 85.617188 C 311.984375 83.023438 310.929688 80.808594 309.457031 79.046875 L 313.867188 72.953125 L 308.214844 69.074219 L 303.800781 75.164062 C 301.601562 74.402344 299.101562 74.179688 296.417969 74.558594 L 296.410156 68.105469 L 288.425781 70.871094 L 288.429688 77.320312 C 285.742188 78.800781 283.246094 80.761719 281.050781 83.039062 L 276.628906 80.007812 L 270.984375 87.796875 L 275.40625 90.832031 C 273.933594 93.609375 272.878906 96.558594 272.351562 99.523438 L 266.109375 101.683594 L 266.117188 109.9375 L 272.355469 107.773438 C 272.894531 110.367188 273.953125 112.582031 275.421875 114.347656 L 271.015625 120.433594 L 276.667969 124.316406 L 281.074219 118.226562 C 283.273438 118.984375 285.777344 119.210938 288.464844 118.832031 L 288.46875 125.28125 L 296.453125 122.519531 L 296.449219 116.066406 C 299.136719 114.585938 301.636719 112.632812 303.832031 110.347656 L 308.25 113.382812 L 313.894531 105.589844 L 309.476562 102.558594 C 310.945312 99.78125 312 96.832031 312.527344 93.871094 L 318.769531 91.707031 " fill-opacity="1" fill-rule="nonzero"/></g><path fill="#4ca2c5" d="M 297.421875 110.167969 C 292.101562 112.007812 287.789062 109.042969 287.785156 103.546875 C 287.78125 98.054688 292.089844 92.105469 297.402344 90.269531 C 302.722656 88.425781 307.039062 91.386719 307.046875 96.882812 C 307.050781 102.378906 302.742188 108.324219 297.421875 110.167969 Z M 323.75 95.230469 L 323.738281 86.976562 L 317.496094 89.140625 C 316.964844 86.542969 315.902344 84.332031 314.433594 82.566406 L 318.839844 76.476562 L 313.191406 72.597656 L 308.78125 78.6875 C 306.578125 77.925781 304.078125 77.699219 301.390625 78.082031 L 301.386719 71.628906 L 293.398438 74.394531 L 293.40625 80.84375 C 290.71875 82.324219 288.21875 84.28125 286.023438 86.5625 L 281.605469 83.53125 L 275.960938 91.316406 L 280.382812 94.351562 C 278.910156 97.132812 277.859375 100.082031 277.328125 103.039062 L 271.085938 105.203125 L 271.089844 113.457031 L 277.332031 111.296875 C 277.867188 113.886719 278.925781 116.105469 280.402344 117.863281 L 275.988281 123.957031 L 281.640625 127.835938 L 286.050781 121.746094 C 288.25 122.507812 290.75 122.734375 293.4375 122.351562 L 293.441406 128.800781 L 301.429688 126.039062 L 301.421875 119.589844 C 304.113281 118.109375 306.609375 116.152344 308.808594 113.871094 L 313.230469 116.90625 L 318.867188 109.113281 L 314.449219 106.082031 C 315.921875 103.296875 316.976562 100.355469 317.507812 97.390625 L 323.75 95.230469 " fill-opacity="1" fill-rule="nonzero"/><path fill="#4ca2c5" d="M 297.421875 110.167969 C 292.101562 112.007812 287.789062 109.042969 287.785156 103.546875 C 287.78125 98.054688 292.089844 92.105469 297.402344 90.269531 C 302.722656 88.425781 307.039062 91.386719 307.046875 96.882812 C 307.050781 102.378906 302.742188 108.324219 297.421875 110.167969 Z M 323.75 95.230469 L 323.738281 86.976562 L 317.496094 89.140625 C 316.964844 86.542969 315.902344 84.332031 314.433594 82.566406 L 318.839844 76.476562 L 313.191406 72.597656 L 308.78125 78.6875 C 306.578125 77.925781 304.078125 77.699219 301.390625 78.082031 L 301.386719 71.628906 L 293.398438 74.394531 L 293.40625 80.84375 C 290.71875 82.324219 288.21875 84.28125 286.023438 86.5625 L 281.605469 83.53125 L 275.960938 91.316406 L 280.382812 94.351562 C 278.910156 97.132812 277.859375 100.082031 277.328125 103.039062 L 271.085938 105.203125 L 271.089844 113.457031 L 277.332031 111.296875 C 277.867188 113.886719 278.925781 116.105469 280.402344 117.863281 L 275.988281 123.957031 L 281.640625 127.835938 L 286.050781 121.746094 C 288.25 122.507812 290.75 122.734375 293.4375 122.351562 L 293.441406 128.800781 L 301.429688 126.039062 L 301.421875 119.589844 C 304.113281 118.109375 306.609375 116.152344 308.808594 113.871094 L 313.230469 116.90625 L 318.867188 109.113281 L 314.449219 106.082031 C 315.921875 103.296875 316.976562 100.355469 317.507812 97.390625 L 323.75 95.230469 " fill-opacity="1" fill-rule="nonzero"/><path fill="#2f617b" d="M 270.984375 87.796875 L 275.960938 91.316406 L 281.605469 83.53125 L 276.628906 80.007812 L 270.984375 87.796875 " fill-opacity="1" fill-rule="nonzero"/><path fill="#1e3b4f" d="M 266.109375 101.683594 L 271.085938 105.203125 L 277.328125 103.039062 L 272.351562 99.523438 L 266.109375 101.683594 " fill-opacity="1" fill-rule="nonzero"/><path fill="#2f617b" d="M 266.109375 101.683594 L 266.117188 109.9375 L 271.089844 113.457031 L 271.085938 105.203125 L 266.109375 101.683594 " fill-opacity="1" fill-rule="nonzero"/><path fill="#1d394c" d="M 288.46875 125.28125 L 293.441406 128.800781 L 293.4375 122.351562 C 293.4375 122.351562 291.578125 122.839844 288.515625 122.351562 L 288.46875 125.28125 " fill-opacity="1" fill-rule="nonzero"/><path fill="#203f53" d="M 288.429688 77.320312 L 293.40625 80.84375 L 293.398438 74.394531 L 288.425781 70.871094 L 288.429688 77.320312 " fill-opacity="1" fill-rule="nonzero"/><g clip-path="url(#19042e3b86)"><path fill="#2f617b" d="M 296.410156 68.105469 L 288.425781 70.871094 L 293.398438 74.394531 L 301.386719 71.628906 L 296.410156 68.105469 " fill-opacity="1" fill-rule="nonzero"/></g><path fill="#1a3244" d="M 318.765625 83.457031 L 323.738281 86.976562 L 317.496094 89.140625 C 317.496094 89.140625 317.109375 86.417969 315.769531 84.492188 L 318.765625 83.457031 " fill-opacity="1" fill-rule="nonzero"/><path fill="#1e3b4f" d="M 275.421875 114.347656 L 280.402344 117.863281 L 275.988281 123.957031 L 271.015625 120.433594 L 275.421875 114.347656 " fill-opacity="1" fill-rule="nonzero"/><path fill="#203f53" d="M 308.78125 78.6875 L 303.800781 75.164062 L 308.214844 69.074219 L 313.191406 72.597656 L 308.78125 78.6875 " fill-opacity="1" fill-rule="nonzero"/><path fill="#71aec7" d="M 159.023438 131.339844 L 167.597656 126.589844 L 162.472656 123.355469 L 153.894531 128.105469 L 159.023438 131.339844 " fill-opacity="1" fill-rule="nonzero"/><path fill="#222326" d="M 167.621094 196.292969 L 167.621094 196.269531 L 167.597656 196.28125 Z M 167.621094 196.292969 " fill-opacity="1" fill-rule="nonzero"/><path fill="#222326" d="M 153.878906 197.789062 L 153.878906 197.8125 L 153.894531 197.796875 Z M 153.878906 197.789062 " fill-opacity="1" fill-rule="nonzero"/><path fill="#f8a049" d="M 159.023438 131.339844 L 153.878906 128.09375 L 153.878906 197.789062 L 159.023438 201.03125 L 159.023438 131.339844 " fill-opacity="1" fill-rule="nonzero"/><path fill="#fbc24b" d="M 159.023438 131.339844 L 167.621094 126.574219 L 167.621094 196.269531 L 159.023438 201.03125 L 159.023438 131.339844 " fill-opacity="1" fill-rule="nonzero"/><path fill="#fee342" d="M 159.023438 145.261719 L 153.878906 141.886719 L 153.878906 144.402344 L 159.023438 147.648438 L 159.023438 145.261719 " fill-opacity="1" fill-rule="nonzero"/><path fill="#fee342" d="M 159.023438 145.21875 L 167.621094 140.453125 L 167.621094 142.882812 L 159.023438 147.648438 L 159.023438 145.21875 " fill-opacity="1" fill-rule="nonzero"/><path fill="#dfcf95" d="M 160.429688 207.046875 L 158.949219 206.140625 L 153.878906 197.789062 L 159.023438 201.03125 L 160.429688 207.046875 " fill-opacity="1" fill-rule="nonzero"/><path fill="#feeca9" d="M 160.429688 207.046875 L 162.054688 207 L 167.621094 196.269531 L 159.023438 201.03125 L 160.429688 207.046875 " fill-opacity="1" fill-rule="nonzero"/><path fill="#e24f54" d="M 159.023438 131.339844 L 167.597656 126.589844 L 162.472656 123.355469 L 153.894531 128.105469 L 159.023438 131.339844 " fill-opacity="1" fill-rule="nonzero"/><path fill="#222326" d="M 167.621094 196.292969 L 167.621094 196.269531 L 167.597656 196.28125 Z M 167.621094 196.292969 " fill-opacity="1" fill-rule="nonzero"/><path fill="#b4343e" d="M 159.023438 145.261719 L 159.023438 131.339844 L 153.878906 128.09375 L 153.878906 141.886719 L 159.023438 145.261719 " fill-opacity="1" fill-rule="nonzero"/><path fill="#cf4b4a" d="M 159.023438 131.339844 L 159.023438 145.261719 L 167.597656 140.84375 L 167.621094 126.574219 L 159.023438 131.339844 " fill-opacity="1" fill-rule="nonzero"/><path fill="#2e3035" d="M 162.054688 207 L 161.246094 208.6875 L 161 208.6875 L 160.429688 207.046875 L 162.054688 207 " fill-opacity="1" fill-rule="nonzero"/><path fill="#1a1a1c" d="M 158.949219 206.140625 L 160.597656 208.6875 L 161 208.6875 L 160.429688 207.046875 L 158.949219 206.140625 " fill-opacity="1" fill-rule="nonzero"/><path fill="#ffffff" d="M 254.726562 438.398438 L 319.855469 400.828125 L 272.910156 373.914062 L 207.78125 411.484375 L 254.726562 438.398438 " fill-opacity="1" fill-rule="nonzero"/><path fill="#9e9c9d" d="M 319.902344 412.617188 L 319.902344 412.570312 L 319.855469 412.59375 Z M 319.902344 412.617188 " fill-opacity="1" fill-rule="nonzero"/><path fill="#9e9c9d" d="M 207.734375 423.230469 L 207.734375 423.277344 L 207.78125 423.253906 Z M 207.734375 423.230469 " fill-opacity="1" fill-rule="nonzero"/><path fill="#9e9c9d" d="M 254.726562 438.398438 L 207.734375 411.464844 L 207.734375 423.230469 L 254.726562 450.167969 L 254.726562 438.398438 " fill-opacity="1" fill-rule="nonzero"/><path fill="#a3a1a1" d="M 254.726562 438.398438 L 319.902344 400.800781 L 319.902344 412.570312 L 254.726562 450.167969 L 254.726562 438.398438 " fill-opacity="1" fill-rule="nonzero"/><path fill="#ffffff" d="M 268.457031 503.132812 L 416.273438 418.863281 L 369.328125 391.949219 L 221.511719 476.21875 L 268.457031 503.132812 " fill-opacity="1" fill-rule="nonzero"/><path fill="#9e9c9d" d="M 416.320312 427.011719 L 416.320312 426.96875 L 416.273438 426.992188 Z M 416.320312 427.011719 " fill-opacity="1" fill-rule="nonzero"/><path fill="#9e9c9d" d="M 221.46875 484.324219 L 221.46875 484.371094 L 221.511719 484.347656 Z M 221.46875 484.324219 " fill-opacity="1" fill-rule="nonzero"/><path fill="#9e9c9d" d="M 268.457031 503.132812 L 221.46875 476.199219 L 221.46875 484.324219 L 268.457031 511.261719 L 268.457031 503.132812 " fill-opacity="1" fill-rule="nonzero"/><path fill="#a3a1a1" d="M 268.457031 503.132812 L 416.320312 418.839844 L 416.320312 426.96875 L 268.457031 511.261719 L 268.457031 503.132812 " fill-opacity="1" fill-rule="nonzero"/><path fill="#e5e4e4" d="M 321.40625 464.660156 L 346.589844 450.304688 L 338.589844 445.71875 L 313.410156 460.078125 L 321.40625 464.660156 " fill-opacity="1" fill-rule="nonzero"/><path fill="#9e9c9d" d="M 346.59375 452.46875 L 346.59375 452.457031 L 346.589844 452.460938 Z M 346.59375 452.46875 " fill-opacity="1" fill-rule="nonzero"/><path fill="#9e9c9d" d="M 313.398438 462.230469 L 313.398438 462.238281 L 313.410156 462.234375 Z M 313.398438 462.230469 " fill-opacity="1" fill-rule="nonzero"/><path fill="#9e9c9d" d="M 321.40625 464.660156 L 313.398438 460.070312 L 313.398438 462.230469 L 321.40625 466.820312 L 321.40625 464.660156 " fill-opacity="1" fill-rule="nonzero"/><path fill="#a3a1a1" d="M 321.40625 464.660156 L 346.59375 450.300781 L 346.59375 452.457031 L 321.40625 466.820312 L 321.40625 464.660156 " fill-opacity="1" fill-rule="nonzero"/><path fill="#ffffff" d="M 249.578125 400.851562 L 289.816406 377.449219 L 278.058594 370.617188 L 237.820312 394.023438 L 249.578125 400.851562 " fill-opacity="1" fill-rule="nonzero"/><path fill="#9e9c9d" d="M 289.855469 399.058594 L 289.855469 399.011719 L 289.816406 399.03125 Z M 289.855469 399.058594 " fill-opacity="1" fill-rule="nonzero"/><path fill="#9e9c9d" d="M 237.78125 415.585938 L 237.78125 415.632812 L 237.820312 415.609375 Z M 237.78125 415.585938 " fill-opacity="1" fill-rule="nonzero"/><path fill="#7f7d7e" d="M 249.578125 400.851562 L 237.78125 394 L 237.78125 415.585938 L 249.578125 422.4375 L 249.578125 400.851562 " fill-opacity="1" fill-rule="nonzero"/><path fill="#d5d4d5" d="M 249.578125 400.851562 L 289.855469 377.421875 L 289.855469 399.011719 L 249.578125 422.4375 L 249.578125 400.851562 " fill-opacity="1" fill-rule="nonzero"/><path fill="#e7e6e6" d="M 161.730469 309.292969 L 391.898438 175.125 L 382.554688 169.191406 L 152.378906 303.359375 L 161.730469 309.292969 " fill-opacity="1" fill-rule="nonzero"/><path fill="#9e9c9d" d="M 391.945312 324.652344 L 391.945312 324.601562 L 391.898438 324.625 Z M 391.945312 324.652344 " fill-opacity="1" fill-rule="nonzero"/><path fill="#9e9c9d" d="M 152.339844 452.835938 L 152.339844 452.878906 L 152.378906 452.859375 Z M 152.339844 452.835938 " fill-opacity="1" fill-rule="nonzero"/><path fill="#9e9c9d" d="M 161.730469 309.292969 L 152.339844 303.335938 L 152.339844 452.835938 L 161.730469 458.792969 L 161.730469 309.292969 " fill-opacity="1" fill-rule="nonzero"/><path fill="#ffffff" d="M 161.730469 309.292969 L 391.945312 175.101562 L 391.945312 324.601562 L 161.730469 458.792969 L 161.730469 309.292969 " fill-opacity="1" fill-rule="nonzero"/><path fill="#c8c7c7" d="M 181.398438 312.054688 L 372.273438 202.191406 L 372.269531 318.46875 L 181.398438 429.417969 L 181.398438 312.054688 " fill-opacity="1" fill-rule="nonzero"/><path fill="#e5e4e4" d="M 247.042969 476.613281 L 253.6875 472.863281 L 245.34375 468.082031 L 238.699219 471.828125 L 247.042969 476.613281 " fill-opacity="1" fill-rule="nonzero"/><path fill="#9e9c9d" d="M 253.691406 475.121094 L 253.691406 475.113281 L 253.6875 475.117188 Z M 253.691406 475.121094 " fill-opacity="1" fill-rule="nonzero"/><path fill="#9e9c9d" d="M 238.695312 474.074219 L 238.695312 474.089844 L 238.699219 474.078125 Z M 238.695312 474.074219 " fill-opacity="1" fill-rule="nonzero"/><path fill="#9e9c9d" d="M 247.042969 476.613281 L 238.695312 471.820312 L 238.695312 474.074219 L 247.042969 478.863281 L 247.042969 476.613281 " fill-opacity="1" fill-rule="nonzero"/><path fill="#a3a1a1" d="M 247.042969 476.613281 L 253.691406 472.859375 L 253.691406 475.113281 L 247.042969 478.863281 L 247.042969 476.613281 " fill-opacity="1" fill-rule="nonzero"/><path fill="#e5e4e4" d="M 256.441406 471.21875 L 263.085938 467.476562 L 254.746094 462.695312 L 248.097656 466.441406 L 256.441406 471.21875 " fill-opacity="1" fill-rule="nonzero"/><path fill="#9e9c9d" d="M 263.097656 469.730469 L 263.097656 469.722656 L 263.085938 469.726562 Z M 263.097656 469.730469 " fill-opacity="1" fill-rule="nonzero"/><path fill="#9e9c9d" d="M 248.09375 468.6875 L 248.09375 468.695312 L 248.097656 468.695312 Z M 248.09375 468.6875 " fill-opacity="1" fill-rule="nonzero"/><path fill="#9e9c9d" d="M 256.441406 471.21875 L 248.09375 466.4375 L 248.09375 468.6875 L 256.441406 473.476562 L 256.441406 471.21875 " fill-opacity="1" fill-rule="nonzero"/><path fill="#a3a1a1" d="M 256.441406 471.21875 L 263.097656 467.472656 L 263.097656 469.722656 L 256.441406 473.476562 L 256.441406 471.21875 " fill-opacity="1" fill-rule="nonzero"/><path fill="#e5e4e4" d="M 265.839844 465.832031 L 272.484375 462.085938 L 264.152344 457.304688 L 257.5 461.050781 L 265.839844 465.832031 " fill-opacity="1" fill-rule="nonzero"/><path fill="#9e9c9d" d="M 272.496094 464.339844 L 272.496094 464.335938 L 272.484375 464.339844 Z M 272.496094 464.339844 " fill-opacity="1" fill-rule="nonzero"/><path fill="#9e9c9d" d="M 257.492188 463.296875 L 257.492188 463.308594 L 257.5 463.304688 Z M 257.492188 463.296875 " fill-opacity="1" fill-rule="nonzero"/><path fill="#9e9c9d" d="M 265.839844 465.832031 L 257.492188 461.046875 L 257.492188 463.296875 L 265.839844 468.082031 L 265.839844 465.832031 " fill-opacity="1" fill-rule="nonzero"/><path fill="#a3a1a1" d="M 265.839844 465.832031 L 272.496094 462.082031 L 272.496094 464.335938 L 265.839844 468.082031 L 265.839844 465.832031 " fill-opacity="1" fill-rule="nonzero"/><path fill="#e5e4e4" d="M 275.246094 460.441406 L 281.894531 456.695312 L 273.550781 451.914062 L 266.90625 455.660156 L 275.246094 460.441406 " fill-opacity="1" fill-rule="nonzero"/><path fill="#9e9c9d" d="M 281.898438 458.953125 L 281.898438 458.945312 L 281.894531 458.945312 Z M 281.898438 458.953125 " fill-opacity="1" fill-rule="nonzero"/><path fill="#9e9c9d" d="M 266.894531 457.90625 L 266.894531 457.917969 L 266.90625 457.914062 Z M 266.894531 457.90625 " fill-opacity="1" fill-rule="nonzero"/><path fill="#9e9c9d" d="M 275.246094 460.441406 L 266.894531 455.65625 L 266.894531 457.90625 L 275.246094 462.695312 L 275.246094 460.441406 " fill-opacity="1" fill-rule="nonzero"/><path fill="#a3a1a1" d="M 275.246094 460.441406 L 281.898438 456.691406 L 281.898438 458.945312 L 275.246094 462.695312 L 275.246094 460.441406 " fill-opacity="1" fill-rule="nonzero"/><path fill="#e5e4e4" d="M 284.644531 455.050781 L 291.292969 451.304688 L 282.953125 446.523438 L 276.304688 450.273438 L 284.644531 455.050781 " fill-opacity="1" fill-rule="nonzero"/><path fill="#9e9c9d" d="M 291.296875 453.5625 L 291.296875 453.554688 L 291.292969 453.558594 Z M 291.296875 453.5625 " fill-opacity="1" fill-rule="nonzero"/><path fill="#9e9c9d" d="M 276.292969 452.519531 L 276.292969 452.527344 L 276.304688 452.523438 Z M 276.292969 452.519531 " fill-opacity="1" fill-rule="nonzero"/><path fill="#9e9c9d" d="M 284.644531 455.050781 L 276.292969 450.265625 L 276.292969 452.519531 L 284.644531 457.304688 L 284.644531 455.050781 " fill-opacity="1" fill-rule="nonzero"/><path fill="#a3a1a1" d="M 284.644531 455.050781 L 291.296875 451.300781 L 291.296875 453.554688 L 284.644531 457.304688 L 284.644531 455.050781 " fill-opacity="1" fill-rule="nonzero"/><path fill="#e5e4e4" d="M 294.046875 449.660156 L 300.695312 445.914062 L 292.351562 441.136719 L 285.707031 444.882812 L 294.046875 449.660156 " fill-opacity="1" fill-rule="nonzero"/><path fill="#9e9c9d" d="M 300.699219 448.171875 L 300.699219 448.164062 L 300.695312 448.167969 Z M 300.699219 448.171875 " fill-opacity="1" fill-rule="nonzero"/><path fill="#9e9c9d" d="M 285.699219 447.128906 L 285.699219 447.136719 L 285.707031 447.132812 Z M 285.699219 447.128906 " fill-opacity="1" fill-rule="nonzero"/><path fill="#9e9c9d" d="M 294.046875 449.660156 L 285.699219 444.878906 L 285.699219 447.128906 L 294.046875 451.914062 L 294.046875 449.660156 " fill-opacity="1" fill-rule="nonzero"/><path fill="#a3a1a1" d="M 294.046875 449.660156 L 300.699219 445.910156 L 300.699219 448.164062 L 294.046875 451.914062 L 294.046875 449.660156 " fill-opacity="1" fill-rule="nonzero"/><path fill="#e5e4e4" d="M 303.449219 444.273438 L 310.09375 440.527344 L 301.753906 435.742188 L 295.109375 439.492188 L 303.449219 444.273438 " fill-opacity="1" fill-rule="nonzero"/><path fill="#9e9c9d" d="M 310.101562 442.78125 L 310.101562 442.773438 L 310.09375 442.777344 Z M 310.101562 442.78125 " fill-opacity="1" fill-rule="nonzero"/><path fill="#9e9c9d" d="M 295.101562 441.742188 L 295.101562 441.75 L 295.109375 441.746094 Z M 295.101562 441.742188 " fill-opacity="1" fill-rule="nonzero"/><path fill="#9e9c9d" d="M 303.449219 444.273438 L 295.101562 439.488281 L 295.101562 441.742188 L 303.449219 446.523438 L 303.449219 444.273438 " fill-opacity="1" fill-rule="nonzero"/><path fill="#a3a1a1" d="M 303.449219 444.273438 L 310.101562 440.523438 L 310.101562 442.773438 L 303.449219 446.523438 L 303.449219 444.273438 " fill-opacity="1" fill-rule="nonzero"/><path fill="#e5e4e4" d="M 312.847656 438.882812 L 319.492188 435.132812 L 311.160156 430.355469 L 304.507812 434.101562 L 312.847656 438.882812 " fill-opacity="1" fill-rule="nonzero"/><path fill="#9e9c9d" d="M 319.503906 437.390625 L 319.503906 437.382812 L 319.492188 437.386719 Z M 319.503906 437.390625 " fill-opacity="1" fill-rule="nonzero"/><path fill="#9e9c9d" d="M 304.5 436.351562 L 304.5 436.355469 L 304.507812 436.355469 Z M 304.5 436.351562 " fill-opacity="1" fill-rule="nonzero"/><path fill="#9e9c9d" d="M 312.847656 438.882812 L 304.5 434.097656 L 304.5 436.351562 L 312.847656 441.136719 L 312.847656 438.882812 " fill-opacity="1" fill-rule="nonzero"/><path fill="#a3a1a1" d="M 312.847656 438.882812 L 319.503906 435.132812 L 319.503906 437.382812 L 312.847656 441.136719 L 312.847656 438.882812 " fill-opacity="1" fill-rule="nonzero"/><path fill="#e5e4e4" d="M 322.25 433.492188 L 328.898438 429.746094 L 320.558594 424.964844 L 313.910156 428.710938 L 322.25 433.492188 " fill-opacity="1" fill-rule="nonzero"/><path fill="#9e9c9d" d="M 328.90625 432.003906 L 328.90625 431.996094 L 328.898438 431.996094 Z M 328.90625 432.003906 " fill-opacity="1" fill-rule="nonzero"/><path fill="#9e9c9d" d="M 313.902344 430.960938 L 313.902344 430.96875 L 313.910156 430.964844 Z M 313.902344 430.960938 " fill-opacity="1" fill-rule="nonzero"/><path fill="#9e9c9d" d="M 322.25 433.492188 L 313.902344 428.707031 L 313.902344 430.960938 L 322.25 435.742188 L 322.25 433.492188 " fill-opacity="1" fill-rule="nonzero"/><path fill="#a3a1a1" d="M 322.25 433.492188 L 328.90625 429.742188 L 328.90625 431.996094 L 322.25 435.742188 L 322.25 433.492188 " fill-opacity="1" fill-rule="nonzero"/><path fill="#e5e4e4" d="M 331.65625 428.101562 L 338.300781 424.359375 L 329.960938 419.574219 L 323.3125 423.320312 L 331.65625 428.101562 " fill-opacity="1" fill-rule="nonzero"/><path fill="#9e9c9d" d="M 338.304688 426.613281 L 338.304688 426.605469 L 338.300781 426.609375 Z M 338.304688 426.613281 " fill-opacity="1" fill-rule="nonzero"/><path fill="#9e9c9d" d="M 323.304688 425.570312 L 323.304688 425.578125 L 323.3125 425.574219 Z M 323.304688 425.570312 " fill-opacity="1" fill-rule="nonzero"/><path fill="#9e9c9d" d="M 331.65625 428.101562 L 323.304688 423.316406 L 323.304688 425.570312 L 331.65625 430.355469 L 331.65625 428.101562 " fill-opacity="1" fill-rule="nonzero"/><path fill="#a3a1a1" d="M 331.65625 428.101562 L 338.304688 424.351562 L 338.304688 426.605469 L 331.65625 430.355469 L 331.65625 428.101562 " fill-opacity="1" fill-rule="nonzero"/><path fill="#e5e4e4" d="M 341.054688 422.710938 L 347.699219 418.96875 L 339.359375 414.183594 L 332.714844 417.933594 L 341.054688 422.710938 " fill-opacity="1" fill-rule="nonzero"/><path fill="#9e9c9d" d="M 347.707031 421.226562 L 347.707031 421.214844 L 347.699219 421.21875 Z M 347.707031 421.226562 " fill-opacity="1" fill-rule="nonzero"/><path fill="#9e9c9d" d="M 332.707031 420.179688 L 332.707031 420.1875 L 332.714844 420.183594 Z M 332.707031 420.179688 " fill-opacity="1" fill-rule="nonzero"/><path fill="#9e9c9d" d="M 341.054688 422.710938 L 332.707031 417.925781 L 332.707031 420.179688 L 341.054688 424.964844 L 341.054688 422.710938 " fill-opacity="1" fill-rule="nonzero"/><path fill="#a3a1a1" d="M 341.054688 422.710938 L 347.707031 418.960938 L 347.707031 421.214844 L 341.054688 424.964844 L 341.054688 422.710938 " fill-opacity="1" fill-rule="nonzero"/><path fill="#e5e4e4" d="M 350.453125 417.320312 L 357.097656 413.578125 L 348.761719 408.792969 L 342.117188 412.542969 L 350.453125 417.320312 " fill-opacity="1" fill-rule="nonzero"/><path fill="#9e9c9d" d="M 357.109375 415.835938 L 357.109375 415.824219 L 357.097656 415.828125 Z M 357.109375 415.835938 " fill-opacity="1" fill-rule="nonzero"/><path fill="#9e9c9d" d="M 342.109375 414.789062 L 342.109375 414.796875 L 342.117188 414.792969 Z M 342.109375 414.789062 " fill-opacity="1" fill-rule="nonzero"/><path fill="#9e9c9d" d="M 350.453125 417.320312 L 342.109375 412.539062 L 342.109375 414.789062 L 350.453125 419.574219 L 350.453125 417.320312 " fill-opacity="1" fill-rule="nonzero"/><path fill="#a3a1a1" d="M 350.453125 417.320312 L 357.109375 413.570312 L 357.109375 415.824219 L 350.453125 419.574219 L 350.453125 417.320312 " fill-opacity="1" fill-rule="nonzero"/><path fill="#e5e4e4" d="M 350.453125 417.347656 L 357.097656 413.601562 L 348.761719 408.820312 L 342.117188 412.566406 L 350.453125 417.347656 " fill-opacity="1" fill-rule="nonzero"/><path fill="#9e9c9d" d="M 357.109375 415.855469 L 357.109375 415.847656 L 357.097656 415.851562 Z M 357.109375 415.855469 " fill-opacity="1" fill-rule="nonzero"/><path fill="#9e9c9d" d="M 342.109375 414.816406 L 342.109375 414.824219 L 342.117188 414.820312 Z M 342.109375 414.816406 " fill-opacity="1" fill-rule="nonzero"/><path fill="#9e9c9d" d="M 350.453125 417.347656 L 342.109375 412.5625 L 342.109375 414.816406 L 350.453125 419.597656 L 350.453125 417.347656 " fill-opacity="1" fill-rule="nonzero"/><path fill="#a3a1a1" d="M 350.453125 417.347656 L 357.109375 413.597656 L 357.109375 415.847656 L 350.453125 419.597656 L 350.453125 417.347656 " fill-opacity="1" fill-rule="nonzero"/><path fill="#e5e4e4" d="M 359.855469 411.957031 L 366.503906 408.210938 L 358.160156 403.429688 L 351.515625 407.175781 L 359.855469 411.957031 " fill-opacity="1" fill-rule="nonzero"/><path fill="#9e9c9d" d="M 366.507812 410.46875 L 366.507812 410.460938 L 366.503906 410.464844 Z M 366.507812 410.46875 " fill-opacity="1" fill-rule="nonzero"/><path fill="#9e9c9d" d="M 351.507812 409.425781 L 351.507812 409.433594 L 351.515625 409.429688 Z M 351.507812 409.425781 " fill-opacity="1" fill-rule="nonzero"/><path fill="#9e9c9d" d="M 359.855469 411.957031 L 351.507812 407.171875 L 351.507812 409.425781 L 359.855469 414.210938 L 359.855469 411.957031 " fill-opacity="1" fill-rule="nonzero"/><path fill="#a3a1a1" d="M 359.855469 411.957031 L 366.507812 408.207031 L 366.507812 410.460938 L 359.855469 414.210938 L 359.855469 411.957031 " fill-opacity="1" fill-rule="nonzero"/><path fill="#e5e4e4" d="M 369.257812 406.59375 L 375.902344 402.84375 L 367.566406 398.066406 L 360.917969 401.8125 L 369.257812 406.59375 " fill-opacity="1" fill-rule="nonzero"/><path fill="#9e9c9d" d="M 375.910156 405.101562 L 375.910156 405.09375 L 375.902344 405.097656 Z M 375.910156 405.101562 " fill-opacity="1" fill-rule="nonzero"/><path fill="#9e9c9d" d="M 360.910156 404.058594 L 360.910156 404.070312 L 360.917969 404.0625 Z M 360.910156 404.058594 " fill-opacity="1" fill-rule="nonzero"/><path fill="#9e9c9d" d="M 369.257812 406.59375 L 360.910156 401.804688 L 360.910156 404.058594 L 369.257812 408.84375 L 369.257812 406.59375 " fill-opacity="1" fill-rule="nonzero"/><path fill="#a3a1a1" d="M 369.257812 406.59375 L 375.910156 402.839844 L 375.910156 405.09375 L 369.257812 408.84375 L 369.257812 406.59375 " fill-opacity="1" fill-rule="nonzero"/><path fill="#e5e4e4" d="M 259.234375 485.285156 L 265.878906 481.539062 L 257.539062 476.757812 L 250.890625 480.503906 L 259.234375 485.285156 " fill-opacity="1" fill-rule="nonzero"/><path fill="#9e9c9d" d="M 265.890625 483.792969 L 265.890625 483.785156 L 265.878906 483.789062 Z M 265.890625 483.792969 " fill-opacity="1" fill-rule="nonzero"/><path fill="#9e9c9d" d="M 250.886719 482.75 L 250.886719 482.761719 L 250.890625 482.757812 Z M 250.886719 482.75 " fill-opacity="1" fill-rule="nonzero"/><path fill="#9e9c9d" d="M 259.234375 485.285156 L 250.886719 480.5 L 250.886719 482.75 L 259.234375 487.535156 L 259.234375 485.285156 " fill-opacity="1" fill-rule="nonzero"/><path fill="#a3a1a1" d="M 259.234375 485.285156 L 265.890625 481.535156 L 265.890625 483.785156 L 259.234375 487.535156 L 259.234375 485.285156 " fill-opacity="1" fill-rule="nonzero"/><path fill="#e5e4e4" d="M 268.632812 479.894531 L 275.277344 476.148438 L 266.945312 471.367188 L 260.292969 475.113281 L 268.632812 479.894531 " fill-opacity="1" fill-rule="nonzero"/><path fill="#9e9c9d" d="M 275.292969 478.402344 L 275.292969 478.398438 L 275.277344 478.398438 Z M 275.292969 478.402344 " fill-opacity="1" fill-rule="nonzero"/><path fill="#9e9c9d" d="M 260.289062 477.359375 L 260.289062 477.371094 L 260.292969 477.367188 Z M 260.289062 477.359375 " fill-opacity="1" fill-rule="nonzero"/><path fill="#9e9c9d" d="M 268.632812 479.894531 L 260.289062 475.109375 L 260.289062 477.359375 L 268.632812 482.148438 L 268.632812 479.894531 " fill-opacity="1" fill-rule="nonzero"/><path fill="#a3a1a1" d="M 268.632812 479.894531 L 275.292969 476.144531 L 275.292969 478.398438 L 268.632812 482.148438 L 268.632812 479.894531 " fill-opacity="1" fill-rule="nonzero"/><path fill="#e5e4e4" d="M 278.039062 474.503906 L 284.683594 470.757812 L 276.34375 465.976562 L 269.699219 469.722656 L 278.039062 474.503906 " fill-opacity="1" fill-rule="nonzero"/><path fill="#9e9c9d" d="M 284.691406 473.015625 L 284.691406 473.007812 L 284.683594 473.011719 Z M 284.691406 473.015625 " fill-opacity="1" fill-rule="nonzero"/><path fill="#9e9c9d" d="M 269.6875 471.972656 L 269.6875 471.980469 L 269.699219 471.976562 Z M 269.6875 471.972656 " fill-opacity="1" fill-rule="nonzero"/><path fill="#9e9c9d" d="M 278.039062 474.503906 L 269.6875 469.71875 L 269.6875 471.972656 L 278.039062 476.757812 L 278.039062 474.503906 " fill-opacity="1" fill-rule="nonzero"/><path fill="#a3a1a1" d="M 278.039062 474.503906 L 284.691406 470.753906 L 284.691406 473.007812 L 278.039062 476.757812 L 278.039062 474.503906 " fill-opacity="1" fill-rule="nonzero"/><path fill="#e5e4e4" d="M 287.441406 469.113281 L 294.085938 465.367188 L 285.746094 460.589844 L 279.097656 464.335938 L 287.441406 469.113281 " fill-opacity="1" fill-rule="nonzero"/><path fill="#9e9c9d" d="M 294.089844 467.625 L 294.089844 467.617188 L 294.085938 467.621094 Z M 294.089844 467.625 " fill-opacity="1" fill-rule="nonzero"/><path fill="#9e9c9d" d="M 279.09375 466.582031 L 279.09375 466.589844 L 279.097656 466.585938 Z M 279.09375 466.582031 " fill-opacity="1" fill-rule="nonzero"/><path fill="#9e9c9d" d="M 287.441406 469.113281 L 279.09375 464.332031 L 279.09375 466.582031 L 287.441406 471.367188 L 287.441406 469.113281 " fill-opacity="1" fill-rule="nonzero"/><path fill="#a3a1a1" d="M 287.441406 469.113281 L 294.089844 465.363281 L 294.089844 467.617188 L 287.441406 471.367188 L 287.441406 469.113281 " fill-opacity="1" fill-rule="nonzero"/><path fill="#e5e4e4" d="M 296.839844 463.726562 L 303.484375 459.980469 L 295.144531 455.199219 L 288.5 458.945312 L 296.839844 463.726562 " fill-opacity="1" fill-rule="nonzero"/><path fill="#9e9c9d" d="M 303.492188 462.234375 L 303.492188 462.226562 L 303.484375 462.230469 Z M 303.492188 462.234375 " fill-opacity="1" fill-rule="nonzero"/><path fill="#9e9c9d" d="M 288.492188 461.195312 L 288.492188 461.199219 L 288.5 461.195312 Z M 288.492188 461.195312 " fill-opacity="1" fill-rule="nonzero"/><path fill="#9e9c9d" d="M 296.839844 463.726562 L 288.492188 458.941406 L 288.492188 461.195312 L 296.839844 465.976562 L 296.839844 463.726562 " fill-opacity="1" fill-rule="nonzero"/><path fill="#a3a1a1" d="M 296.839844 463.726562 L 303.492188 459.972656 L 303.492188 462.226562 L 296.839844 465.976562 L 296.839844 463.726562 " fill-opacity="1" fill-rule="nonzero"/><path fill="#e5e4e4" d="M 306.242188 458.335938 L 312.886719 454.589844 L 304.542969 449.808594 L 297.902344 453.554688 L 306.242188 458.335938 " fill-opacity="1" fill-rule="nonzero"/><path fill="#9e9c9d" d="M 312.894531 456.84375 L 312.894531 456.835938 L 312.886719 456.839844 Z M 312.894531 456.84375 " fill-opacity="1" fill-rule="nonzero"/><path fill="#9e9c9d" d="M 297.894531 455.804688 L 297.894531 455.8125 L 297.902344 455.808594 Z M 297.894531 455.804688 " fill-opacity="1" fill-rule="nonzero"/><path fill="#9e9c9d" d="M 306.242188 458.335938 L 297.894531 453.550781 L 297.894531 455.804688 L 306.242188 460.589844 L 306.242188 458.335938 " fill-opacity="1" fill-rule="nonzero"/><path fill="#a3a1a1" d="M 306.242188 458.335938 L 312.894531 454.585938 L 312.894531 456.835938 L 306.242188 460.589844 L 306.242188 458.335938 " fill-opacity="1" fill-rule="nonzero"/><path fill="#e5e4e4" d="M 315.644531 452.945312 L 322.289062 449.199219 L 313.945312 444.417969 L 307.300781 448.164062 L 315.644531 452.945312 " fill-opacity="1" fill-rule="nonzero"/><path fill="#9e9c9d" d="M 322.296875 451.453125 L 322.296875 451.449219 L 322.289062 451.449219 Z M 322.296875 451.453125 " fill-opacity="1" fill-rule="nonzero"/><path fill="#9e9c9d" d="M 307.292969 450.414062 L 307.292969 450.421875 L 307.300781 450.417969 Z M 307.292969 450.414062 " fill-opacity="1" fill-rule="nonzero"/><path fill="#9e9c9d" d="M 315.644531 452.945312 L 307.292969 448.160156 L 307.292969 450.414062 L 315.644531 455.199219 L 315.644531 452.945312 " fill-opacity="1" fill-rule="nonzero"/><path fill="#a3a1a1" d="M 315.644531 452.945312 L 322.296875 449.195312 L 322.296875 451.449219 L 315.644531 455.199219 L 315.644531 452.945312 " fill-opacity="1" fill-rule="nonzero"/><path fill="#e5e4e4" d="M 325.042969 447.554688 L 331.691406 443.8125 L 323.351562 439.027344 L 316.699219 442.773438 L 325.042969 447.554688 " fill-opacity="1" fill-rule="nonzero"/><path fill="#9e9c9d" d="M 331.699219 446.0625 L 331.699219 446.054688 L 331.691406 446.058594 Z M 331.699219 446.0625 " fill-opacity="1" fill-rule="nonzero"/><path fill="#9e9c9d" d="M 316.695312 445.023438 L 316.695312 445.03125 L 316.699219 445.027344 Z M 316.695312 445.023438 " fill-opacity="1" fill-rule="nonzero"/><path fill="#9e9c9d" d="M 325.042969 447.554688 L 316.695312 442.769531 L 316.695312 445.023438 L 325.042969 449.808594 L 325.042969 447.554688 " fill-opacity="1" fill-rule="nonzero"/><path fill="#a3a1a1" d="M 325.042969 447.554688 L 331.699219 443.804688 L 331.699219 446.054688 L 325.042969 449.808594 L 325.042969 447.554688 " fill-opacity="1" fill-rule="nonzero"/><path fill="#e5e4e4" d="M 334.441406 442.164062 L 341.09375 438.421875 L 332.753906 433.636719 L 326.105469 437.382812 L 334.441406 442.164062 " fill-opacity="1" fill-rule="nonzero"/><path fill="#9e9c9d" d="M 341.101562 440.679688 L 341.101562 440.667969 L 341.09375 440.671875 Z M 341.101562 440.679688 " fill-opacity="1" fill-rule="nonzero"/><path fill="#9e9c9d" d="M 326.097656 439.632812 L 326.097656 439.640625 L 326.105469 439.636719 Z M 326.097656 439.632812 " fill-opacity="1" fill-rule="nonzero"/><path fill="#9e9c9d" d="M 334.441406 442.164062 L 326.097656 437.382812 L 326.097656 439.632812 L 334.441406 444.417969 L 334.441406 442.164062 " fill-opacity="1" fill-rule="nonzero"/><path fill="#a3a1a1" d="M 334.441406 442.164062 L 341.101562 438.414062 L 341.101562 440.667969 L 334.441406 444.417969 L 334.441406 442.164062 " fill-opacity="1" fill-rule="nonzero"/><path fill="#e5e4e4" d="M 343.847656 436.773438 L 350.492188 433.03125 L 342.152344 428.25 L 335.507812 431.996094 L 343.847656 436.773438 " fill-opacity="1" fill-rule="nonzero"/><path fill="#9e9c9d" d="M 350.5 435.289062 L 350.5 435.277344 L 350.492188 435.28125 Z M 350.5 435.289062 " fill-opacity="1" fill-rule="nonzero"/><path fill="#9e9c9d" d="M 335.5 434.242188 L 335.5 434.25 L 335.507812 434.246094 Z M 335.5 434.242188 " fill-opacity="1" fill-rule="nonzero"/><path fill="#9e9c9d" d="M 343.847656 436.773438 L 335.5 431.992188 L 335.5 434.242188 L 343.847656 439.027344 L 343.847656 436.773438 " fill-opacity="1" fill-rule="nonzero"/><path fill="#a3a1a1" d="M 343.847656 436.773438 L 350.5 433.023438 L 350.5 435.277344 L 343.847656 439.027344 L 343.847656 436.773438 " fill-opacity="1" fill-rule="nonzero"/><path fill="#e5e4e4" d="M 353.25 431.390625 L 359.894531 427.644531 L 351.554688 422.859375 L 344.90625 426.605469 L 353.25 431.390625 " fill-opacity="1" fill-rule="nonzero"/><path fill="#9e9c9d" d="M 359.898438 429.898438 L 359.898438 429.886719 L 359.894531 429.890625 Z M 359.898438 429.898438 " fill-opacity="1" fill-rule="nonzero"/><path fill="#9e9c9d" d="M 344.902344 428.855469 L 344.902344 428.859375 L 344.90625 428.859375 Z M 344.902344 428.855469 " fill-opacity="1" fill-rule="nonzero"/><path fill="#9e9c9d" d="M 353.25 431.390625 L 344.902344 426.601562 L 344.902344 428.855469 L 353.25 433.636719 L 353.25 431.390625 " fill-opacity="1" fill-rule="nonzero"/><path fill="#a3a1a1" d="M 353.25 431.390625 L 359.898438 427.632812 L 359.898438 429.886719 L 353.25 433.636719 L 353.25 431.390625 " fill-opacity="1" fill-rule="nonzero"/><path fill="#e5e4e4" d="M 362.648438 426 L 369.296875 422.253906 L 360.953125 417.46875 L 354.308594 421.214844 L 362.648438 426 " fill-opacity="1" fill-rule="nonzero"/><path fill="#9e9c9d" d="M 369.300781 424.507812 L 369.300781 424.496094 L 369.296875 424.5 Z M 369.300781 424.507812 " fill-opacity="1" fill-rule="nonzero"/><path fill="#9e9c9d" d="M 354.300781 423.464844 L 354.300781 423.472656 L 354.308594 423.464844 Z M 354.300781 423.464844 " fill-opacity="1" fill-rule="nonzero"/><path fill="#9e9c9d" d="M 362.648438 426 L 354.300781 421.210938 L 354.300781 423.464844 L 362.648438 428.25 L 362.648438 426 " fill-opacity="1" fill-rule="nonzero"/><path fill="#a3a1a1" d="M 362.648438 426 L 369.300781 422.25 L 369.300781 424.496094 L 362.648438 428.25 L 362.648438 426 " fill-opacity="1" fill-rule="nonzero"/><path fill="#e5e4e4" d="M 362.648438 426.019531 L 369.296875 422.273438 L 360.953125 417.492188 L 354.308594 421.238281 L 362.648438 426.019531 " fill-opacity="1" fill-rule="nonzero"/><path fill="#9e9c9d" d="M 369.300781 424.53125 L 369.300781 424.523438 L 369.296875 424.527344 Z M 369.300781 424.53125 " fill-opacity="1" fill-rule="nonzero"/><path fill="#9e9c9d" d="M 354.300781 423.488281 L 354.300781 423.496094 L 354.308594 423.492188 Z M 354.300781 423.488281 " fill-opacity="1" fill-rule="nonzero"/><path fill="#9e9c9d" d="M 362.648438 426.019531 L 354.300781 421.238281 L 354.300781 423.488281 L 362.648438 428.273438 L 362.648438 426.019531 " fill-opacity="1" fill-rule="nonzero"/><path fill="#a3a1a1" d="M 362.648438 426.019531 L 369.300781 422.269531 L 369.300781 424.523438 L 362.648438 428.273438 L 362.648438 426.019531 " fill-opacity="1" fill-rule="nonzero"/><path fill="#e5e4e4" d="M 372.050781 420.628906 L 378.695312 416.882812 L 370.351562 412.105469 L 363.710938 415.851562 L 372.050781 420.628906 " fill-opacity="1" fill-rule="nonzero"/><path fill="#9e9c9d" d="M 378.707031 419.140625 L 378.707031 419.132812 L 378.695312 419.136719 Z M 378.707031 419.140625 " fill-opacity="1" fill-rule="nonzero"/><path fill="#9e9c9d" d="M 363.703125 418.097656 L 363.703125 418.105469 L 363.710938 418.101562 Z M 363.703125 418.097656 " fill-opacity="1" fill-rule="nonzero"/><path fill="#9e9c9d" d="M 372.050781 420.628906 L 363.703125 415.847656 L 363.703125 418.097656 L 372.050781 422.882812 L 372.050781 420.628906 " fill-opacity="1" fill-rule="nonzero"/><path fill="#a3a1a1" d="M 372.050781 420.628906 L 378.707031 416.878906 L 378.707031 419.132812 L 372.050781 422.882812 L 372.050781 420.628906 " fill-opacity="1" fill-rule="nonzero"/><path fill="#e5e4e4" d="M 381.449219 415.265625 L 388.101562 411.519531 L 379.761719 406.738281 L 373.109375 410.484375 L 381.449219 415.265625 " fill-opacity="1" fill-rule="nonzero"/><path fill="#9e9c9d" d="M 388.105469 413.773438 L 388.105469 413.769531 L 388.101562 413.769531 Z M 388.105469 413.773438 " fill-opacity="1" fill-rule="nonzero"/><path fill="#9e9c9d" d="M 373.101562 412.730469 L 373.101562 412.742188 L 373.109375 412.738281 Z M 373.101562 412.730469 " fill-opacity="1" fill-rule="nonzero"/><path fill="#9e9c9d" d="M 381.449219 415.265625 L 373.101562 410.480469 L 373.101562 412.730469 L 381.449219 417.519531 L 381.449219 415.265625 " fill-opacity="1" fill-rule="nonzero"/><path fill="#a3a1a1" d="M 381.449219 415.265625 L 388.105469 411.515625 L 388.105469 413.769531 L 381.449219 417.519531 L 381.449219 415.265625 " fill-opacity="1" fill-rule="nonzero"/><path fill="#3398c1" d="M 330.410156 281.566406 C 332.371094 274.894531 333.042969 267.832031 332.054688 261.222656 C 330.511719 250.929688 325.277344 243.992188 318.394531 241.59375 C 318.34375 240.554688 318.246094 239.519531 318.09375 238.503906 C 316.035156 224.769531 305.515625 218.746094 294.589844 225.054688 C 294.175781 225.289062 293.773438 225.542969 293.375 225.804688 C 288.144531 214.8125 277.125 211.035156 265.769531 217.589844 C 256.410156 222.988281 249.183594 234.042969 246.164062 246.050781 C 244.035156 246.480469 241.84375 247.3125 239.636719 248.582031 C 227.039062 255.855469 218.75 274.589844 221.117188 290.429688 C 221.1875 290.875 221.261719 291.3125 221.347656 291.742188 C 211.402344 301.761719 205.550781 318.46875 207.726562 332.996094 C 208.71875 339.601562 211.226562 344.820312 214.714844 348.351562 L 330.410156 281.566406 " fill-opacity="1" fill-rule="nonzero"/><path fill="#8cdaf8" d="M 348.671875 290.984375 C 350.628906 284.308594 351.300781 277.25 350.3125 270.644531 C 348.765625 260.34375 343.535156 253.414062 336.652344 251.011719 C 336.601562 249.972656 336.5 248.9375 336.351562 247.917969 C 334.292969 234.183594 323.773438 228.164062 312.847656 234.46875 C 312.4375 234.707031 312.035156 234.964844 311.636719 235.226562 C 306.398438 224.234375 295.386719 220.449219 284.027344 227.007812 C 274.671875 232.40625 267.441406 243.464844 264.421875 255.472656 C 262.289062 255.898438 260.101562 256.726562 257.894531 258 C 245.292969 265.273438 237.003906 284.011719 239.378906 299.851562 C 239.445312 300.296875 239.523438 300.730469 239.605469 301.164062 C 229.65625 311.183594 223.808594 327.882812 225.980469 342.410156 C 226.972656 349.023438 229.484375 354.242188 232.972656 357.769531 L 348.671875 290.984375 " fill-opacity="1" fill-rule="nonzero"/><path fill="#8cdaf8" d="M 348.671875 290.984375 C 350.628906 284.308594 351.300781 277.25 350.3125 270.644531 C 348.765625 260.34375 343.535156 253.414062 336.652344 251.011719 C 336.601562 249.972656 336.5 248.9375 336.351562 247.917969 C 334.292969 234.183594 323.773438 228.164062 312.847656 234.46875 C 312.4375 234.707031 312.035156 234.964844 311.636719 235.226562 C 306.398438 224.234375 295.386719 220.449219 284.027344 227.007812 C 274.671875 232.40625 267.441406 243.464844 264.421875 255.472656 C 262.289062 255.898438 260.101562 256.726562 257.894531 258 C 245.292969 265.273438 237.003906 284.011719 239.378906 299.851562 C 239.445312 300.296875 239.523438 300.730469 239.605469 301.164062 C 229.65625 311.183594 223.808594 327.882812 225.980469 342.410156 C 226.972656 349.023438 229.484375 354.242188 232.972656 357.769531 L 348.671875 290.984375 " fill-opacity="1" fill-rule="nonzero"/><path fill="#8cdaf8" d="M 348.671875 290.984375 C 350.628906 284.308594 351.300781 277.25 350.3125 270.644531 C 348.765625 260.34375 343.535156 253.414062 336.652344 251.011719 C 336.601562 249.972656 336.5 248.9375 336.351562 247.917969 C 334.292969 234.183594 323.773438 228.164062 312.847656 234.46875 C 312.4375 234.707031 312.035156 234.964844 311.636719 235.226562 C 306.398438 224.234375 295.386719 220.449219 284.027344 227.007812 C 274.671875 232.40625 267.441406 243.464844 264.421875 255.472656 C 262.289062 255.898438 260.101562 256.726562 257.894531 258 C 245.292969 265.273438 237.003906 284.011719 239.378906 299.851562 C 239.445312 300.296875 239.523438 300.730469 239.605469 301.164062 C 229.65625 311.183594 223.808594 327.882812 225.980469 342.410156 C 226.972656 349.023438 229.484375 354.242188 232.972656 357.769531 L 348.671875 290.984375 " fill-opacity="1" fill-rule="nonzero"/><path fill="#3aaedc" d="M 232.972656 357.769531 L 214.714844 348.351562 C 214.714844 348.351562 203.71875 339.308594 208.34375 316.738281 C 208.34375 316.738281 211.308594 300.796875 221.347656 291.742188 L 239.605469 301.164062 C 239.605469 301.164062 228.503906 313.878906 226.449219 326.886719 C 224.402344 339.890625 226.207031 351.34375 232.972656 357.769531 " fill-opacity="1" fill-rule="nonzero"/><path fill="#2e8ab0" d="M 246.164062 246.050781 L 264.421875 255.472656 C 264.421875 255.472656 268.828125 236.023438 282.734375 227.804688 C 282.734375 227.804688 289.457031 223.027344 296.941406 223.878906 L 285.878906 216.980469 C 285.878906 216.980469 279.296875 212.03125 269.796875 215.683594 C 260.292969 219.339844 249.800781 231.175781 246.164062 246.050781 " fill-opacity="1" fill-rule="nonzero"/><path fill="#2e8ab0" d="M 311.636719 235.226562 C 311.636719 235.226562 318.242188 229.835938 326.382812 232.929688 L 308.9375 223.875 C 308.9375 223.875 303.78125 220.894531 296.941406 223.878906 C 296.941406 223.878906 306.539062 224.300781 311.636719 235.226562 " fill-opacity="1" fill-rule="nonzero"/></svg>