<svg xmlns="http://www.w3.org/2000/svg" xmlns:xlink="http://www.w3.org/1999/xlink" width="800" zoomAndPan="magnify" viewBox="0 0 600 599.999999" height="800" preserveAspectRatio="xMidYMid meet" version="1.0"><defs><clipPath id="592cf92d3b"><path d="M 113.835938 113.835938 L 485.835938 113.835938 L 485.835938 485.835938 L 113.835938 485.835938 Z M 113.835938 113.835938 " clip-rule="nonzero"/></clipPath><clipPath id="dd01e2c811"><path d="M 464.136719 144.835938 L 369.359375 144.835938 L 356.828125 132.308594 C 354.820312 130.296875 351.695312 129.910156 349.253906 131.375 L 333.820312 140.636719 C 330.21875 138.785156 326.472656 137.234375 322.617188 135.996094 L 318.25 118.53125 C 317.5625 115.773438 315.082031 113.835938 312.238281 113.835938 L 287.4375 113.835938 C 284.59375 113.835938 282.113281 115.773438 281.421875 118.53125 L 277.058594 135.996094 C 273.203125 137.234375 269.457031 138.785156 265.855469 140.636719 L 250.417969 131.375 C 247.980469 129.914062 244.855469 130.296875 242.84375 132.308594 L 230.316406 144.835938 L 135.539062 144.835938 C 123.570312 144.835938 113.835938 154.570312 113.835938 166.539062 L 113.835938 383.539062 C 113.835938 395.503906 123.570312 405.238281 135.539062 405.238281 L 264.871094 405.238281 C 262.746094 416.199219 257.40625 426.5 249.125 434.78125 L 247.667969 436.238281 L 239.28125 436.238281 C 228.328125 436.238281 218.640625 443.21875 215.175781 453.609375 L 209.34375 471.113281 C 208.210938 474.515625 208.785156 478.28125 210.882812 481.191406 C 212.976562 484.101562 216.371094 485.839844 219.957031 485.839844 L 379.71875 485.839844 C 383.304688 485.839844 386.695312 484.101562 388.792969 481.191406 C 390.890625 478.28125 391.464844 474.515625 390.328125 471.113281 L 384.496094 453.613281 C 381.03125 443.21875 371.347656 436.238281 360.390625 436.238281 L 352.003906 436.238281 L 350.546875 434.78125 C 342.269531 426.503906 336.949219 416.199219 334.832031 405.238281 L 464.136719 405.238281 C 476.101562 405.238281 485.835938 395.503906 485.835938 383.539062 L 485.835938 166.539062 C 485.835938 154.570312 476.101562 144.835938 464.136719 144.835938 Z M 246.097656 169.519531 L 237.5 155.191406 L 248.191406 144.5 L 262.519531 153.097656 C 264.453125 154.257812 266.863281 154.273438 268.816406 153.144531 C 273.515625 150.421875 278.5625 148.332031 283.808594 146.933594 C 285.988281 146.351562 287.679688 144.632812 288.226562 142.445312 L 292.277344 126.238281 L 307.398438 126.238281 L 311.449219 142.445312 C 311.996094 144.632812 313.6875 146.351562 315.863281 146.933594 C 321.113281 148.332031 326.160156 150.421875 330.859375 153.144531 C 332.808594 154.273438 335.222656 154.257812 337.15625 153.097656 L 351.484375 144.5 L 362.175781 155.191406 L 353.578125 169.519531 C 352.417969 171.453125 352.398438 173.863281 353.527344 175.816406 C 356.25 180.515625 358.34375 185.5625 359.742188 190.808594 C 360.324219 192.988281 362.042969 194.679688 364.230469 195.226562 L 380.4375 199.277344 L 380.4375 214.398438 L 364.230469 218.449219 C 362.042969 218.996094 360.324219 220.6875 359.742188 222.863281 C 358.34375 228.113281 356.25 233.15625 353.527344 237.859375 C 352.398438 239.808594 352.417969 242.222656 353.578125 244.15625 L 362.175781 258.484375 L 351.484375 269.175781 L 337.15625 260.578125 C 335.222656 259.417969 332.808594 259.398438 330.859375 260.527344 C 326.160156 263.25 321.113281 265.34375 315.863281 266.742188 C 313.6875 267.324219 311.996094 269.042969 311.449219 271.230469 L 307.398438 287.4375 L 292.277344 287.4375 L 288.226562 271.230469 C 287.679688 269.042969 285.988281 267.324219 283.808594 266.742188 C 278.5625 265.34375 273.515625 263.25 268.816406 260.527344 C 266.863281 259.398438 264.453125 259.417969 262.519531 260.578125 L 248.191406 269.175781 L 237.5 258.484375 L 246.097656 244.15625 C 247.257812 242.222656 247.273438 239.808594 246.144531 237.859375 C 243.421875 233.160156 241.332031 228.113281 239.933594 222.863281 C 239.351562 220.6875 237.632812 218.996094 235.445312 218.449219 L 219.238281 214.398438 L 219.238281 199.277344 L 235.445312 195.226562 C 237.632812 194.679688 239.351562 192.988281 239.933594 190.808594 C 241.332031 185.5625 243.421875 180.515625 246.144531 175.816406 C 247.277344 173.863281 247.257812 171.453125 246.097656 169.519531 Z M 386.085938 225.765625 L 387.011719 229.472656 C 387.558594 231.660156 389.25 233.378906 391.429688 233.960938 C 395.027344 234.917969 398.484375 236.351562 401.707031 238.21875 C 403.660156 239.347656 406.070312 239.332031 408.003906 238.171875 L 417.054688 232.742188 L 422.734375 238.421875 L 417.304688 247.46875 C 416.144531 249.402344 416.125 251.816406 417.253906 253.765625 C 419.121094 256.988281 420.554688 260.449219 421.515625 264.046875 C 422.097656 266.222656 423.8125 267.914062 426 268.460938 L 436.238281 271.019531 L 436.238281 279.054688 L 426 281.613281 C 423.8125 282.160156 422.097656 283.851562 421.515625 286.027344 C 420.554688 289.625 419.121094 293.082031 417.253906 296.308594 C 416.125 298.257812 416.144531 300.671875 417.304688 302.605469 L 422.734375 311.652344 L 417.054688 317.332031 L 408.003906 311.902344 C 406.070312 310.742188 403.660156 310.722656 401.707031 311.855469 C 398.484375 313.722656 395.027344 315.15625 391.429688 316.113281 C 389.25 316.695312 387.558594 318.414062 387.011719 320.601562 L 384.453125 330.835938 L 376.421875 330.835938 L 373.863281 320.601562 C 373.316406 318.414062 371.625 316.695312 369.445312 316.113281 C 365.847656 315.15625 362.390625 313.722656 359.167969 311.855469 C 357.214844 310.722656 354.804688 310.742188 352.871094 311.902344 L 343.820312 317.332031 L 338.140625 311.652344 L 343.570312 302.605469 C 344.730469 300.671875 344.75 298.257812 343.621094 296.308594 C 341.753906 293.085938 340.320312 289.625 339.359375 286.027344 C 338.78125 283.851562 337.0625 282.160156 334.875 281.613281 L 324.636719 279.054688 L 324.636719 276.984375 C 327.78125 275.871094 330.851562 274.5625 333.820312 273.035156 L 343.425781 278.800781 C 345.320312 297.550781 361.195312 312.238281 380.4375 312.238281 C 400.949219 312.238281 417.636719 295.550781 417.636719 275.039062 C 417.636719 254.523438 400.949219 237.835938 380.4375 237.835938 C 375.347656 237.835938 370.496094 238.875 366.078125 240.738281 C 367.910156 237.164062 369.449219 233.441406 370.679688 229.617188 Z M 374.367188 263.828125 C 376.378906 261.816406 376.761719 258.695312 375.300781 256.257812 L 372.484375 251.5625 C 374.980469 250.710938 377.652344 250.238281 380.4375 250.238281 C 394.113281 250.238281 405.238281 261.363281 405.238281 275.039062 C 405.238281 288.710938 394.113281 299.835938 380.4375 299.835938 C 369.039062 299.835938 359.421875 292.109375 356.53125 281.621094 C 356.628906 281.53125 356.734375 281.460938 356.828125 281.367188 Z M 170.019531 290.109375 C 168.152344 286.882812 166.71875 283.425781 165.761719 279.828125 C 165.179688 277.652344 163.460938 275.957031 161.273438 275.414062 L 151.039062 272.855469 L 151.039062 264.820312 L 161.273438 262.261719 C 163.460938 261.714844 165.179688 260.023438 165.761719 257.847656 C 166.71875 254.25 168.152344 250.789062 170.019531 247.566406 C 171.148438 245.617188 171.128906 243.203125 169.96875 241.269531 L 164.539062 232.222656 L 170.222656 226.542969 L 179.269531 231.972656 C 181.203125 233.132812 183.613281 233.148438 185.566406 232.019531 C 188.789062 230.152344 192.25 228.71875 195.84375 227.761719 C 198.023438 227.179688 199.714844 225.460938 200.261719 223.273438 L 202.820312 213.039062 L 206.835938 213.039062 L 206.835938 219.238281 C 206.835938 222.082031 208.773438 224.5625 211.535156 225.253906 L 228.996094 229.617188 C 230.234375 233.472656 231.789062 237.21875 233.636719 240.820312 L 232.777344 242.25 C 226.074219 235.699219 216.929688 231.636719 206.835938 231.636719 C 186.324219 231.636719 169.636719 248.324219 169.636719 268.835938 C 169.636719 289.347656 186.324219 306.039062 206.835938 306.039062 C 223.226562 306.039062 237.167969 295.378906 242.109375 280.628906 L 242.84375 281.367188 C 243.949219 282.472656 245.394531 283.066406 246.875 283.152344 C 246.011719 285.558594 244.941406 287.890625 243.65625 290.109375 C 242.527344 292.058594 242.542969 294.472656 243.703125 296.40625 L 249.132812 305.453125 L 243.453125 311.132812 L 234.40625 305.703125 C 232.472656 304.542969 230.058594 304.523438 228.109375 305.65625 C 224.886719 307.523438 221.425781 308.957031 217.828125 309.914062 C 215.652344 310.496094 213.960938 312.214844 213.414062 314.402344 L 210.855469 324.636719 L 202.820312 324.636719 L 200.261719 314.402344 C 199.714844 312.214844 198.023438 310.496094 195.847656 309.914062 C 192.25 308.957031 188.789062 307.523438 185.566406 305.65625 C 183.613281 304.523438 181.203125 304.542969 179.269531 305.703125 L 170.222656 311.132812 L 164.542969 305.453125 L 169.972656 296.40625 C 171.128906 294.472656 171.148438 292.058594 170.019531 290.109375 Z M 225.308594 263.828125 L 231.601562 270.125 C 230.929688 283.203125 220.078125 293.636719 206.835938 293.636719 C 193.164062 293.636719 182.039062 282.511719 182.039062 268.835938 C 182.039062 255.164062 193.164062 244.039062 206.835938 244.039062 C 214.636719 244.039062 221.59375 247.667969 226.140625 253.316406 L 224.375 256.257812 C 222.914062 258.695312 223.296875 261.816406 225.308594 263.828125 Z M 135.539062 157.238281 L 224.285156 157.238281 C 224.320312 157.296875 224.339844 157.359375 224.375 157.417969 L 233.636719 172.855469 C 231.789062 176.457031 230.234375 180.203125 228.996094 184.058594 L 211.535156 188.421875 C 208.773438 189.113281 206.835938 191.59375 206.835938 194.4375 L 206.835938 200.636719 L 197.980469 200.636719 C 195.132812 200.636719 192.65625 202.574219 191.964844 205.332031 L 189.082031 216.863281 C 186.882812 217.613281 184.730469 218.503906 182.640625 219.53125 L 172.449219 213.417969 C 170.011719 211.953125 166.886719 212.335938 164.875 214.347656 L 152.347656 226.875 C 150.335938 228.886719 149.953125 232.011719 151.417969 234.449219 L 157.53125 244.640625 C 156.503906 246.730469 155.613281 248.882812 154.863281 251.082031 L 143.332031 253.964844 C 140.574219 254.65625 138.636719 257.132812 138.636719 259.980469 L 138.636719 277.695312 C 138.636719 280.539062 140.574219 283.019531 143.332031 283.707031 L 154.863281 286.589844 C 155.613281 288.792969 156.503906 290.945312 157.53125 293.035156 L 151.417969 303.222656 C 149.953125 305.664062 150.335938 308.785156 152.347656 310.796875 L 164.875 323.324219 C 166.886719 325.335938 170.011719 325.71875 172.449219 324.257812 L 182.640625 318.140625 C 184.730469 319.167969 186.882812 320.058594 189.082031 320.8125 L 191.964844 332.339844 C 192.65625 335.101562 195.132812 337.035156 197.980469 337.035156 L 215.695312 337.035156 C 218.539062 337.035156 221.019531 335.101562 221.707031 332.339844 L 224.589844 320.8125 C 226.792969 320.058594 228.945312 319.167969 231.035156 318.140625 L 241.222656 324.257812 C 243.664062 325.71875 246.785156 325.335938 248.796875 323.324219 L 261.324219 310.796875 C 263.335938 308.785156 263.71875 305.664062 262.257812 303.222656 L 256.140625 293.035156 C 257.167969 290.945312 258.058594 288.792969 258.8125 286.589844 L 270.339844 283.707031 C 273.101562 283.019531 275.035156 280.539062 275.035156 277.695312 L 275.035156 276.984375 C 275.707031 277.21875 276.378906 277.460938 277.054688 277.675781 L 281.421875 295.140625 C 282.113281 297.902344 284.589844 299.835938 287.4375 299.835938 L 312.238281 299.835938 C 315.082031 299.835938 317.5625 297.902344 318.25 295.140625 L 319.40625 290.527344 L 328.460938 292.789062 C 329.210938 294.992188 330.105469 297.144531 331.128906 299.234375 L 325.015625 309.425781 C 323.550781 311.863281 323.9375 314.988281 325.949219 317 L 338.472656 329.523438 C 340.484375 331.535156 343.609375 331.921875 346.046875 330.457031 L 356.238281 324.34375 C 358.328125 325.367188 360.480469 326.261719 362.683594 327.011719 L 365.5625 338.539062 C 366.253906 341.300781 368.734375 343.238281 371.578125 343.238281 L 389.292969 343.238281 C 392.136719 343.238281 394.617188 341.300781 395.308594 338.539062 L 398.1875 327.011719 C 400.390625 326.261719 402.542969 325.367188 404.632812 324.34375 L 414.824219 330.457031 C 417.261719 331.921875 420.382812 331.539062 422.394531 329.523438 L 434.921875 317 C 436.933594 314.988281 437.320312 311.863281 435.855469 309.425781 L 429.742188 299.234375 C 430.765625 297.144531 431.660156 294.992188 432.410156 292.789062 L 443.9375 289.910156 C 446.699219 289.21875 448.636719 286.738281 448.636719 283.894531 L 448.636719 266.179688 C 448.636719 263.335938 446.699219 260.855469 443.9375 260.164062 L 432.410156 257.285156 C 431.660156 255.082031 430.765625 252.929688 429.742188 250.839844 L 435.855469 240.652344 C 437.320312 238.210938 436.933594 235.089844 434.921875 233.078125 L 422.394531 220.550781 C 420.382812 218.539062 417.261719 218.152344 414.824219 219.617188 L 404.632812 225.734375 C 402.542969 224.707031 400.390625 223.8125 398.1875 223.0625 L 395.308594 211.535156 C 394.933594 210.042969 394.03125 208.800781 392.835938 207.96875 L 392.835938 194.4375 C 392.835938 191.59375 390.898438 189.113281 388.136719 188.421875 L 370.675781 184.058594 C 369.4375 180.203125 367.882812 176.457031 366.03125 172.855469 L 375.296875 157.417969 C 375.332031 157.359375 375.351562 157.296875 375.386719 157.238281 L 464.136719 157.238281 C 469.265625 157.238281 473.4375 161.410156 473.4375 166.539062 L 473.4375 355.636719 L 126.238281 355.636719 L 126.238281 166.539062 C 126.238281 161.410156 130.410156 157.238281 135.539062 157.238281 Z M 372.734375 457.53125 L 378.035156 473.4375 L 221.640625 473.4375 L 226.941406 457.53125 C 228.714844 452.210938 233.675781 448.636719 239.28125 448.636719 L 360.390625 448.636719 C 366 448.636719 370.960938 452.210938 372.734375 457.53125 Z M 335.40625 436.238281 L 264.234375 436.238281 C 271.226562 427.019531 275.722656 416.378906 277.480469 405.238281 L 322.21875 405.238281 C 323.972656 416.375 328.429688 427.019531 335.40625 436.238281 Z M 464.136719 392.835938 L 135.539062 392.835938 C 130.410156 392.835938 126.238281 388.664062 126.238281 383.539062 L 126.238281 368.039062 L 473.4375 368.039062 L 473.4375 383.539062 C 473.4375 388.664062 469.265625 392.835938 464.136719 392.835938 Z M 337.039062 380.4375 C 337.039062 383.859375 334.261719 386.636719 330.835938 386.636719 L 268.835938 386.636719 C 265.414062 386.636719 262.636719 383.859375 262.636719 380.4375 C 262.636719 377.011719 265.414062 374.238281 268.835938 374.238281 L 330.835938 374.238281 C 334.261719 374.238281 337.039062 377.011719 337.039062 380.4375 Z M 461.039062 380.4375 C 461.039062 383.859375 458.261719 386.636719 454.835938 386.636719 L 442.4375 386.636719 C 439.011719 386.636719 436.238281 383.859375 436.238281 380.4375 C 436.238281 377.011719 439.011719 374.238281 442.4375 374.238281 L 454.835938 374.238281 C 458.261719 374.238281 461.039062 377.011719 461.039062 380.4375 Z M 430.039062 380.4375 C 430.039062 383.859375 427.261719 386.636719 423.835938 386.636719 L 411.4375 386.636719 C 408.011719 386.636719 405.238281 383.859375 405.238281 380.4375 C 405.238281 377.011719 408.011719 374.238281 411.4375 374.238281 L 423.835938 374.238281 C 427.261719 374.238281 430.039062 377.011719 430.039062 380.4375 Z M 399.039062 380.4375 C 399.039062 383.859375 396.261719 386.636719 392.835938 386.636719 L 380.4375 386.636719 C 377.011719 386.636719 374.238281 383.859375 374.238281 380.4375 C 374.238281 377.011719 377.011719 374.238281 380.4375 374.238281 L 392.835938 374.238281 C 396.261719 374.238281 399.039062 377.011719 399.039062 380.4375 Z M 151.050781 380.4375 C 151.050781 383.859375 148.277344 386.636719 144.851562 386.636719 C 141.429688 386.636719 138.648438 383.859375 138.648438 380.4375 C 138.648438 377.011719 141.421875 374.238281 144.84375 374.238281 L 144.851562 374.238281 C 148.277344 374.238281 151.050781 377.011719 151.050781 380.4375 Z M 169.652344 380.4375 C 169.652344 383.859375 166.875 386.636719 163.453125 386.636719 C 160.027344 386.636719 157.25 383.859375 157.25 380.4375 C 157.25 377.011719 160.019531 374.238281 163.445312 374.238281 L 163.453125 374.238281 C 166.875 374.238281 169.652344 377.011719 169.652344 380.4375 Z M 188.253906 380.4375 C 188.253906 383.859375 185.476562 386.636719 182.050781 386.636719 C 178.628906 386.636719 175.847656 383.859375 175.847656 380.4375 C 175.847656 377.011719 178.621094 374.238281 182.046875 374.238281 L 182.050781 374.238281 C 185.476562 374.238281 188.253906 377.011719 188.253906 380.4375 Z M 299.835938 256.4375 C 327.1875 256.4375 349.4375 234.1875 349.4375 206.835938 C 349.4375 179.488281 327.1875 157.238281 299.835938 157.238281 C 272.488281 157.238281 250.238281 179.488281 250.238281 206.835938 C 250.238281 234.1875 272.488281 256.4375 299.835938 256.4375 Z M 299.835938 169.636719 C 320.347656 169.636719 337.039062 186.324219 337.039062 206.835938 C 337.039062 227.347656 320.347656 244.039062 299.835938 244.039062 C 279.324219 244.039062 262.636719 227.347656 262.636719 206.835938 C 262.636719 186.324219 279.324219 169.636719 299.835938 169.636719 Z M 299.835938 169.636719 " clip-rule="nonzero"/></clipPath><linearGradient x1="-0.0000119774" gradientTransform="matrix(0.775, 0, 0, 0.775, 101.437202, 101.43724)" y1="480.000021" x2="480.000005" gradientUnits="userSpaceOnUse" y2="0.00000381613" id="43de88ec65"><stop stop-opacity="1" stop-color="rgb(36.898804%, 73.699951%, 89.7995%)" offset="0"/><stop stop-opacity="1" stop-color="rgb(36.898804%, 73.699951%, 89.7995%)" offset="0.125"/><stop stop-opacity="1" stop-color="rgb(37.19635%, 73.469543%, 89.802551%)" offset="0.128906"/><stop stop-opacity="1" stop-color="rgb(37.495422%, 73.239136%, 89.805603%)" offset="0.132812"/><stop stop-opacity="1" stop-color="rgb(37.811279%, 72.994995%, 89.808655%)" offset="0.136719"/><stop stop-opacity="1" stop-color="rgb(38.127136%, 72.75238%, 89.813232%)" offset="0.140625"/><stop stop-opacity="1" stop-color="rgb(38.442993%, 72.50824%, 89.816284%)" offset="0.144531"/><stop stop-opacity="1" stop-color="rgb(38.75885%, 72.265625%, 89.820862%)" offset="0.148437"/><stop stop-opacity="1" stop-color="rgb(39.074707%, 72.021484%, 89.823914%)" offset="0.152344"/><stop stop-opacity="1" stop-color="rgb(39.390564%, 71.77887%, 89.828491%)" offset="0.15625"/><stop stop-opacity="1" stop-color="rgb(39.706421%, 71.534729%, 89.831543%)" offset="0.160156"/><stop stop-opacity="1" stop-color="rgb(40.022278%, 71.290588%, 89.836121%)" offset="0.164062"/><stop stop-opacity="1" stop-color="rgb(40.338135%, 71.046448%, 89.839172%)" offset="0.167969"/><stop stop-opacity="1" stop-color="rgb(40.653992%, 70.803833%, 89.842224%)" offset="0.171875"/><stop stop-opacity="1" stop-color="rgb(40.969849%, 70.559692%, 89.845276%)" offset="0.175781"/><stop stop-opacity="1" stop-color="rgb(41.285706%, 70.317078%, 89.849854%)" offset="0.179687"/><stop stop-opacity="1" stop-color="rgb(41.601562%, 70.072937%, 89.852905%)" offset="0.183594"/><stop stop-opacity="1" stop-color="rgb(41.917419%, 69.830322%, 89.857483%)" offset="0.1875"/><stop stop-opacity="1" stop-color="rgb(42.233276%, 69.586182%, 89.860535%)" offset="0.191406"/><stop stop-opacity="1" stop-color="rgb(42.549133%, 69.343567%, 89.865112%)" offset="0.195312"/><stop stop-opacity="1" stop-color="rgb(42.86499%, 69.099426%, 89.868164%)" offset="0.199219"/><stop stop-opacity="1" stop-color="rgb(43.180847%, 68.855286%, 89.872742%)" offset="0.203125"/><stop stop-opacity="1" stop-color="rgb(43.496704%, 68.611145%, 89.875793%)" offset="0.207031"/><stop stop-opacity="1" stop-color="rgb(43.812561%, 68.36853%, 89.878845%)" offset="0.210938"/><stop stop-opacity="1" stop-color="rgb(44.128418%, 68.12439%, 89.881897%)" offset="0.214844"/><stop stop-opacity="1" stop-color="rgb(44.444275%, 67.881775%, 89.886475%)" offset="0.21875"/><stop stop-opacity="1" stop-color="rgb(44.760132%, 67.637634%, 89.889526%)" offset="0.222656"/><stop stop-opacity="1" stop-color="rgb(45.075989%, 67.39502%, 89.894104%)" offset="0.226562"/><stop stop-opacity="1" stop-color="rgb(45.391846%, 67.150879%, 89.897156%)" offset="0.230469"/><stop stop-opacity="1" stop-color="rgb(45.707703%, 66.908264%, 89.901733%)" offset="0.234375"/><stop stop-opacity="1" stop-color="rgb(46.02356%, 66.664124%, 89.904785%)" offset="0.238281"/><stop stop-opacity="1" stop-color="rgb(46.339417%, 66.419983%, 89.909363%)" offset="0.242187"/><stop stop-opacity="1" stop-color="rgb(46.655273%, 66.175842%, 89.912415%)" offset="0.246094"/><stop stop-opacity="1" stop-color="rgb(46.97113%, 65.933228%, 89.915466%)" offset="0.25"/><stop stop-opacity="1" stop-color="rgb(47.286987%, 65.689087%, 89.918518%)" offset="0.253906"/><stop stop-opacity="1" stop-color="rgb(47.602844%, 65.446472%, 89.923096%)" offset="0.257812"/><stop stop-opacity="1" stop-color="rgb(47.918701%, 65.202332%, 89.926147%)" offset="0.261719"/><stop stop-opacity="1" stop-color="rgb(48.234558%, 64.959717%, 89.930725%)" offset="0.265625"/><stop stop-opacity="1" stop-color="rgb(48.550415%, 64.715576%, 89.933777%)" offset="0.269531"/><stop stop-opacity="1" stop-color="rgb(48.866272%, 64.471436%, 89.938354%)" offset="0.273437"/><stop stop-opacity="1" stop-color="rgb(49.182129%, 64.227295%, 89.941406%)" offset="0.277344"/><stop stop-opacity="1" stop-color="rgb(49.497986%, 63.98468%, 89.945984%)" offset="0.28125"/><stop stop-opacity="1" stop-color="rgb(49.813843%, 63.74054%, 89.949036%)" offset="0.285156"/><stop stop-opacity="1" stop-color="rgb(50.1297%, 63.497925%, 89.952087%)" offset="0.289062"/><stop stop-opacity="1" stop-color="rgb(50.445557%, 63.253784%, 89.955139%)" offset="0.292969"/><stop stop-opacity="1" stop-color="rgb(50.761414%, 63.011169%, 89.959717%)" offset="0.296875"/><stop stop-opacity="1" stop-color="rgb(51.077271%, 62.767029%, 89.962769%)" offset="0.300781"/><stop stop-opacity="1" stop-color="rgb(51.393127%, 62.524414%, 89.967346%)" offset="0.304688"/><stop stop-opacity="1" stop-color="rgb(51.708984%, 62.280273%, 89.970398%)" offset="0.308594"/><stop stop-opacity="1" stop-color="rgb(52.024841%, 62.036133%, 89.974976%)" offset="0.3125"/><stop stop-opacity="1" stop-color="rgb(52.340698%, 61.791992%, 89.978027%)" offset="0.316406"/><stop stop-opacity="1" stop-color="rgb(52.656555%, 61.549377%, 89.982605%)" offset="0.320312"/><stop stop-opacity="1" stop-color="rgb(52.972412%, 61.305237%, 89.985657%)" offset="0.324219"/><stop stop-opacity="1" stop-color="rgb(53.288269%, 61.062622%, 89.988708%)" offset="0.328125"/><stop stop-opacity="1" stop-color="rgb(53.604126%, 60.818481%, 89.99176%)" offset="0.332031"/><stop stop-opacity="1" stop-color="rgb(53.919983%, 60.575867%, 89.996338%)" offset="0.335938"/><stop stop-opacity="1" stop-color="rgb(54.23584%, 60.331726%, 89.99939%)" offset="0.339844"/><stop stop-opacity="1" stop-color="rgb(54.551697%, 60.089111%, 90.003967%)" offset="0.34375"/><stop stop-opacity="1" stop-color="rgb(54.867554%, 59.844971%, 90.007019%)" offset="0.347656"/><stop stop-opacity="1" stop-color="rgb(55.183411%, 59.60083%, 90.011597%)" offset="0.351563"/><stop stop-opacity="1" stop-color="rgb(55.499268%, 59.356689%, 90.014648%)" offset="0.355469"/><stop stop-opacity="1" stop-color="rgb(55.815125%, 59.114075%, 90.019226%)" offset="0.359375"/><stop stop-opacity="1" stop-color="rgb(56.130981%, 58.869934%, 90.022278%)" offset="0.363281"/><stop stop-opacity="1" stop-color="rgb(56.446838%, 58.627319%, 90.02533%)" offset="0.367188"/><stop stop-opacity="1" stop-color="rgb(56.762695%, 58.383179%, 90.028381%)" offset="0.371094"/><stop stop-opacity="1" stop-color="rgb(57.078552%, 58.140564%, 90.032959%)" offset="0.375"/><stop stop-opacity="1" stop-color="rgb(57.394409%, 57.896423%, 90.036011%)" offset="0.378906"/><stop stop-opacity="1" stop-color="rgb(57.710266%, 57.653809%, 90.040588%)" offset="0.382812"/><stop stop-opacity="1" stop-color="rgb(58.026123%, 57.409668%, 90.04364%)" offset="0.386719"/><stop stop-opacity="1" stop-color="rgb(58.34198%, 57.165527%, 90.048218%)" offset="0.390625"/><stop stop-opacity="1" stop-color="rgb(58.657837%, 56.921387%, 90.05127%)" offset="0.394531"/><stop stop-opacity="1" stop-color="rgb(58.973694%, 56.678772%, 90.055847%)" offset="0.398437"/><stop stop-opacity="1" stop-color="rgb(59.289551%, 56.434631%, 90.058899%)" offset="0.402344"/><stop stop-opacity="1" stop-color="rgb(59.605408%, 56.192017%, 90.061951%)" offset="0.40625"/><stop stop-opacity="1" stop-color="rgb(59.921265%, 55.947876%, 90.065002%)" offset="0.410156"/><stop stop-opacity="1" stop-color="rgb(60.237122%, 55.705261%, 90.06958%)" offset="0.414062"/><stop stop-opacity="1" stop-color="rgb(60.552979%, 55.461121%, 90.072632%)" offset="0.417969"/><stop stop-opacity="1" stop-color="rgb(60.868835%, 55.218506%, 90.077209%)" offset="0.421875"/><stop stop-opacity="1" stop-color="rgb(61.184692%, 54.974365%, 90.080261%)" offset="0.425781"/><stop stop-opacity="1" stop-color="rgb(61.500549%, 54.730225%, 90.084839%)" offset="0.429688"/><stop stop-opacity="1" stop-color="rgb(61.816406%, 54.486084%, 90.087891%)" offset="0.433594"/><stop stop-opacity="1" stop-color="rgb(62.132263%, 54.243469%, 90.092468%)" offset="0.4375"/><stop stop-opacity="1" stop-color="rgb(62.44812%, 53.999329%, 90.09552%)" offset="0.441406"/><stop stop-opacity="1" stop-color="rgb(62.763977%, 53.756714%, 90.098572%)" offset="0.445312"/><stop stop-opacity="1" stop-color="rgb(63.079834%, 53.512573%, 90.101624%)" offset="0.449219"/><stop stop-opacity="1" stop-color="rgb(63.395691%, 53.269958%, 90.106201%)" offset="0.453125"/><stop stop-opacity="1" stop-color="rgb(63.711548%, 53.025818%, 90.109253%)" offset="0.457031"/><stop stop-opacity="1" stop-color="rgb(64.027405%, 52.783203%, 90.113831%)" offset="0.460938"/><stop stop-opacity="1" stop-color="rgb(64.343262%, 52.539062%, 90.116882%)" offset="0.464844"/><stop stop-opacity="1" stop-color="rgb(64.659119%, 52.294922%, 90.12146%)" offset="0.46875"/><stop stop-opacity="1" stop-color="rgb(64.974976%, 52.050781%, 90.124512%)" offset="0.472656"/><stop stop-opacity="1" stop-color="rgb(65.290833%, 51.808167%, 90.129089%)" offset="0.476563"/><stop stop-opacity="1" stop-color="rgb(65.606689%, 51.564026%, 90.132141%)" offset="0.480469"/><stop stop-opacity="1" stop-color="rgb(65.922546%, 51.321411%, 90.135193%)" offset="0.484375"/><stop stop-opacity="1" stop-color="rgb(66.238403%, 51.077271%, 90.138245%)" offset="0.488281"/><stop stop-opacity="1" stop-color="rgb(66.55426%, 50.834656%, 90.142822%)" offset="0.492188"/><stop stop-opacity="1" stop-color="rgb(66.870117%, 50.590515%, 90.145874%)" offset="0.496094"/><stop stop-opacity="1" stop-color="rgb(67.185974%, 50.3479%, 90.150452%)" offset="0.5"/><stop stop-opacity="1" stop-color="rgb(67.501831%, 50.10376%, 90.153503%)" offset="0.503906"/><stop stop-opacity="1" stop-color="rgb(67.817688%, 49.859619%, 90.158081%)" offset="0.507812"/><stop stop-opacity="1" stop-color="rgb(68.133545%, 49.615479%, 90.161133%)" offset="0.511719"/><stop stop-opacity="1" stop-color="rgb(68.449402%, 49.372864%, 90.16571%)" offset="0.515625"/><stop stop-opacity="1" stop-color="rgb(68.765259%, 49.128723%, 90.168762%)" offset="0.519531"/><stop stop-opacity="1" stop-color="rgb(69.081116%, 48.886108%, 90.171814%)" offset="0.523438"/><stop stop-opacity="1" stop-color="rgb(69.396973%, 48.641968%, 90.174866%)" offset="0.527344"/><stop stop-opacity="1" stop-color="rgb(69.71283%, 48.399353%, 90.179443%)" offset="0.53125"/><stop stop-opacity="1" stop-color="rgb(70.028687%, 48.155212%, 90.182495%)" offset="0.535156"/><stop stop-opacity="1" stop-color="rgb(70.344543%, 47.912598%, 90.187073%)" offset="0.539062"/><stop stop-opacity="1" stop-color="rgb(70.6604%, 47.668457%, 90.190125%)" offset="0.542969"/><stop stop-opacity="1" stop-color="rgb(70.976257%, 47.424316%, 90.194702%)" offset="0.546875"/><stop stop-opacity="1" stop-color="rgb(71.244812%, 47.2229%, 90.022278%)" offset="0.550781"/><stop stop-opacity="1" stop-color="rgb(71.513367%, 47.02301%, 89.851379%)" offset="0.554687"/><stop stop-opacity="1" stop-color="rgb(71.685791%, 46.908569%, 89.326477%)" offset="0.558594"/><stop stop-opacity="1" stop-color="rgb(71.859741%, 46.794128%, 88.803101%)" offset="0.5625"/><stop stop-opacity="1" stop-color="rgb(72.032166%, 46.679688%, 88.279724%)" offset="0.566406"/><stop stop-opacity="1" stop-color="rgb(72.20459%, 46.565247%, 87.756348%)" offset="0.570312"/><stop stop-opacity="1" stop-color="rgb(72.377014%, 46.450806%, 87.231445%)" offset="0.574219"/><stop stop-opacity="1" stop-color="rgb(72.549438%, 46.336365%, 86.708069%)" offset="0.578125"/><stop stop-opacity="1" stop-color="rgb(72.721863%, 46.221924%, 86.183167%)" offset="0.582031"/><stop stop-opacity="1" stop-color="rgb(72.894287%, 46.107483%, 85.65979%)" offset="0.585938"/><stop stop-opacity="1" stop-color="rgb(73.066711%, 45.993042%, 85.134888%)" offset="0.589844"/><stop stop-opacity="1" stop-color="rgb(73.240662%, 45.878601%, 84.611511%)" offset="0.59375"/><stop stop-opacity="1" stop-color="rgb(73.413086%, 45.76416%, 84.086609%)" offset="0.597656"/><stop stop-opacity="1" stop-color="rgb(73.58551%, 45.649719%, 83.563232%)" offset="0.601562"/><stop stop-opacity="1" stop-color="rgb(73.757935%, 45.535278%, 83.03833%)" offset="0.605469"/><stop stop-opacity="1" stop-color="rgb(73.930359%, 45.420837%, 82.514954%)" offset="0.609375"/><stop stop-opacity="1" stop-color="rgb(74.102783%, 45.306396%, 81.991577%)" offset="0.613281"/><stop stop-opacity="1" stop-color="rgb(74.276733%, 45.191956%, 81.468201%)" offset="0.617188"/><stop stop-opacity="1" stop-color="rgb(74.449158%, 45.077515%, 80.943298%)" offset="0.621094"/><stop stop-opacity="1" stop-color="rgb(74.621582%, 44.963074%, 80.419922%)" offset="0.625"/><stop stop-opacity="1" stop-color="rgb(74.794006%, 44.848633%, 79.89502%)" offset="0.628906"/><stop stop-opacity="1" stop-color="rgb(74.966431%, 44.734192%, 79.371643%)" offset="0.632812"/><stop stop-opacity="1" stop-color="rgb(75.138855%, 44.619751%, 78.846741%)" offset="0.636719"/><stop stop-opacity="1" stop-color="rgb(75.312805%, 44.50531%, 78.323364%)" offset="0.640625"/><stop stop-opacity="1" stop-color="rgb(75.485229%, 44.390869%, 77.798462%)" offset="0.644531"/><stop stop-opacity="1" stop-color="rgb(75.657654%, 44.276428%, 77.275085%)" offset="0.648438"/><stop stop-opacity="1" stop-color="rgb(75.830078%, 44.161987%, 76.751709%)" offset="0.652344"/><stop stop-opacity="1" stop-color="rgb(76.002502%, 44.047546%, 76.228333%)" offset="0.65625"/><stop stop-opacity="1" stop-color="rgb(76.174927%, 43.933105%, 75.70343%)" offset="0.660156"/><stop stop-opacity="1" stop-color="rgb(76.348877%, 43.818665%, 75.180054%)" offset="0.664062"/><stop stop-opacity="1" stop-color="rgb(76.521301%, 43.704224%, 74.655151%)" offset="0.667969"/><stop stop-opacity="1" stop-color="rgb(76.693726%, 43.589783%, 74.131775%)" offset="0.671875"/><stop stop-opacity="1" stop-color="rgb(76.86615%, 43.475342%, 73.606873%)" offset="0.675781"/><stop stop-opacity="1" stop-color="rgb(77.038574%, 43.360901%, 73.083496%)" offset="0.679688"/><stop stop-opacity="1" stop-color="rgb(77.210999%, 43.24646%, 72.558594%)" offset="0.683594"/><stop stop-opacity="1" stop-color="rgb(77.384949%, 43.132019%, 72.035217%)" offset="0.6875"/><stop stop-opacity="1" stop-color="rgb(77.557373%, 43.017578%, 71.510315%)" offset="0.691406"/><stop stop-opacity="1" stop-color="rgb(77.729797%, 42.903137%, 70.986938%)" offset="0.695313"/><stop stop-opacity="1" stop-color="rgb(77.902222%, 42.788696%, 70.463562%)" offset="0.699219"/><stop stop-opacity="1" stop-color="rgb(78.074646%, 42.674255%, 69.940186%)" offset="0.703125"/><stop stop-opacity="1" stop-color="rgb(78.24707%, 42.559814%, 69.415283%)" offset="0.707031"/><stop stop-opacity="1" stop-color="rgb(78.419495%, 42.445374%, 68.891907%)" offset="0.710938"/><stop stop-opacity="1" stop-color="rgb(78.591919%, 42.330933%, 68.367004%)" offset="0.714844"/><stop stop-opacity="1" stop-color="rgb(78.765869%, 42.216492%, 67.843628%)" offset="0.71875"/><stop stop-opacity="1" stop-color="rgb(78.938293%, 42.102051%, 67.318726%)" offset="0.722656"/><stop stop-opacity="1" stop-color="rgb(79.110718%, 41.98761%, 66.795349%)" offset="0.726562"/><stop stop-opacity="1" stop-color="rgb(79.283142%, 41.873169%, 66.270447%)" offset="0.730469"/><stop stop-opacity="1" stop-color="rgb(79.455566%, 41.758728%, 65.74707%)" offset="0.734375"/><stop stop-opacity="1" stop-color="rgb(79.627991%, 41.644287%, 65.223694%)" offset="0.738281"/><stop stop-opacity="1" stop-color="rgb(79.801941%, 41.529846%, 64.700317%)" offset="0.742188"/><stop stop-opacity="1" stop-color="rgb(79.974365%, 41.415405%, 64.175415%)" offset="0.746094"/><stop stop-opacity="1" stop-color="rgb(80.14679%, 41.300964%, 63.652039%)" offset="0.75"/><stop stop-opacity="1" stop-color="rgb(80.319214%, 41.186523%, 63.127136%)" offset="0.753906"/><stop stop-opacity="1" stop-color="rgb(80.491638%, 41.072083%, 62.60376%)" offset="0.757812"/><stop stop-opacity="1" stop-color="rgb(80.664062%, 40.957642%, 62.078857%)" offset="0.761719"/><stop stop-opacity="1" stop-color="rgb(80.838013%, 40.843201%, 61.555481%)" offset="0.765625"/><stop stop-opacity="1" stop-color="rgb(81.010437%, 40.72876%, 61.030579%)" offset="0.769531"/><stop stop-opacity="1" stop-color="rgb(81.182861%, 40.614319%, 60.507202%)" offset="0.773438"/><stop stop-opacity="1" stop-color="rgb(81.355286%, 40.499878%, 59.9823%)" offset="0.777344"/><stop stop-opacity="1" stop-color="rgb(81.52771%, 40.385437%, 59.458923%)" offset="0.78125"/><stop stop-opacity="1" stop-color="rgb(81.700134%, 40.270996%, 58.935547%)" offset="0.785156"/><stop stop-opacity="1" stop-color="rgb(81.874084%, 40.156555%, 58.41217%)" offset="0.789062"/><stop stop-opacity="1" stop-color="rgb(82.046509%, 40.042114%, 57.887268%)" offset="0.792969"/><stop stop-opacity="1" stop-color="rgb(82.218933%, 39.927673%, 57.363892%)" offset="0.796875"/><stop stop-opacity="1" stop-color="rgb(82.391357%, 39.813232%, 56.838989%)" offset="0.800781"/><stop stop-opacity="1" stop-color="rgb(82.563782%, 39.698792%, 56.315613%)" offset="0.804687"/><stop stop-opacity="1" stop-color="rgb(82.736206%, 39.584351%, 55.79071%)" offset="0.808594"/><stop stop-opacity="1" stop-color="rgb(82.90863%, 39.46991%, 55.267334%)" offset="0.8125"/><stop stop-opacity="1" stop-color="rgb(83.081055%, 39.355469%, 54.742432%)" offset="0.816406"/><stop stop-opacity="1" stop-color="rgb(83.255005%, 39.241028%, 54.219055%)" offset="0.820312"/><stop stop-opacity="1" stop-color="rgb(83.427429%, 39.126587%, 53.695679%)" offset="0.824219"/><stop stop-opacity="1" stop-color="rgb(83.599854%, 39.012146%, 53.172302%)" offset="0.828125"/><stop stop-opacity="1" stop-color="rgb(83.772278%, 38.897705%, 52.6474%)" offset="0.832031"/><stop stop-opacity="1" stop-color="rgb(83.944702%, 38.783264%, 52.124023%)" offset="0.835938"/><stop stop-opacity="1" stop-color="rgb(84.117126%, 38.668823%, 51.599121%)" offset="0.839844"/><stop stop-opacity="1" stop-color="rgb(84.291077%, 38.554382%, 51.075745%)" offset="0.84375"/><stop stop-opacity="1" stop-color="rgb(84.463501%, 38.439941%, 50.550842%)" offset="0.847656"/><stop stop-opacity="1" stop-color="rgb(84.635925%, 38.3255%, 50.027466%)" offset="0.851562"/><stop stop-opacity="1" stop-color="rgb(84.80835%, 38.21106%, 49.502563%)" offset="0.855469"/><stop stop-opacity="1" stop-color="rgb(84.980774%, 38.096619%, 48.979187%)" offset="0.859375"/><stop stop-opacity="1" stop-color="rgb(85.153198%, 37.982178%, 48.454285%)" offset="0.863281"/><stop stop-opacity="1" stop-color="rgb(85.327148%, 37.867737%, 47.930908%)" offset="0.867188"/><stop stop-opacity="1" stop-color="rgb(85.499573%, 37.753296%, 47.407532%)" offset="0.871094"/><stop stop-opacity="1" stop-color="rgb(85.671997%, 37.638855%, 46.884155%)" offset="0.875"/><stop stop-opacity="1" stop-color="rgb(85.844421%, 37.524414%, 46.359253%)" offset="0.878906"/><stop stop-opacity="1" stop-color="rgb(86.016846%, 37.409973%, 45.835876%)" offset="0.882812"/><stop stop-opacity="1" stop-color="rgb(86.18927%, 37.295532%, 45.310974%)" offset="0.886719"/><stop stop-opacity="1" stop-color="rgb(86.36322%, 37.181091%, 44.787598%)" offset="0.890625"/><stop stop-opacity="1" stop-color="rgb(86.535645%, 37.06665%, 44.262695%)" offset="0.894531"/><stop stop-opacity="1" stop-color="rgb(86.708069%, 36.952209%, 43.739319%)" offset="0.898438"/><stop stop-opacity="1" stop-color="rgb(86.880493%, 36.837769%, 43.214417%)" offset="0.902344"/><stop stop-opacity="1" stop-color="rgb(87.052917%, 36.723328%, 42.69104%)" offset="0.90625"/><stop stop-opacity="1" stop-color="rgb(87.225342%, 36.608887%, 42.166138%)" offset="0.910156"/><stop stop-opacity="1" stop-color="rgb(87.397766%, 36.494446%, 41.642761%)" offset="0.914062"/><stop stop-opacity="1" stop-color="rgb(87.57019%, 36.380005%, 41.119385%)" offset="0.917969"/><stop stop-opacity="1" stop-color="rgb(87.744141%, 36.265564%, 40.596008%)" offset="0.921875"/><stop stop-opacity="1" stop-color="rgb(87.916565%, 36.151123%, 40.071106%)" offset="0.925781"/><stop stop-opacity="1" stop-color="rgb(88.088989%, 36.036682%, 39.547729%)" offset="0.929688"/><stop stop-opacity="1" stop-color="rgb(88.261414%, 35.922241%, 39.022827%)" offset="0.933594"/><stop stop-opacity="1" stop-color="rgb(88.433838%, 35.8078%, 38.499451%)" offset="0.9375"/><stop stop-opacity="1" stop-color="rgb(88.516235%, 35.752869%, 38.249207%)" offset="0.941406"/><stop stop-opacity="1" stop-color="rgb(88.598633%, 35.699463%, 37.998962%)" offset="0.945312"/><stop stop-opacity="1" stop-color="rgb(88.598633%, 35.699463%, 37.998962%)" offset="0.953125"/><stop stop-opacity="1" stop-color="rgb(88.598633%, 35.699463%, 37.998962%)" offset="0.96875"/><stop stop-opacity="1" stop-color="rgb(88.598633%, 35.699463%, 37.998962%)" offset="1"/></linearGradient></defs><g clip-path="url(#592cf92d3b)"><g clip-path="url(#dd01e2c811)"><path fill="url(#43de88ec65)" d="M 113.835938 113.835938 L 113.835938 485.835938 L 485.835938 485.835938 L 485.835938 113.835938 Z M 113.835938 113.835938 " fill-rule="nonzero"/></g></g></svg>